<?xml version="1.0" standalone="no"?>
<!DOCTYPE svg PUBLIC "-//W3C//DTD SVG 20010904//EN"
 "http://www.w3.org/TR/2001/REC-SVG-20010904/DTD/svg10.dtd">
<svg version="1.0" xmlns="http://www.w3.org/2000/svg"
 width="1020.000000pt" height="1020.000000pt" viewBox="0 0 1020.000000 1020.000000"
 preserveAspectRatio="xMidYMid meet">
<metadata>
Created by potrace 1.14, written by Peter Selinger 2001-2017
</metadata>
<g transform="translate(0.000000,1020.000000) scale(0.100000,-0.100000)"
fill="#000000" stroke="none">
<path d="M7465 7270 c-6 -18 -8 -18 -21 -5 -20 20 -25 19 -17 -2 7 -17 5 -17
-21 1 -16 10 -26 13 -22 8 3 -6 2 -13 -4 -17 -5 -3 -10 -2 -10 2 0 5 -11 9
-25 9 -14 0 -25 -5 -25 -10 0 -6 -4 -5 -9 3 -6 9 -11 10 -15 2 -4 -6 -13 -11
-19 -11 -7 0 -6 4 3 10 12 8 9 10 -12 7 -15 -1 -30 -6 -34 -10 -4 -4 -16 1
-27 10 -11 10 -17 13 -14 6 4 -6 3 -14 -3 -18 -5 -3 -10 -1 -10 5 0 8 -6 7
-21 -1 -12 -6 -19 -7 -15 -1 4 6 -8 8 -32 5 -20 -2 -43 -4 -49 -4 -7 1 -19 1
-25 2 -7 0 -25 -2 -40 -4 -15 -2 -25 0 -22 4 7 12 -3 11 -28 -2 -18 -10 -20
-9 -15 5 6 14 3 14 -20 -1 -15 -10 -24 -13 -20 -6 9 15 -44 13 -55 -2 -5 -6
-8 -5 -8 3 0 6 -5 12 -11 12 -5 0 -7 -6 -3 -12 6 -10 5 -10 -7 -1 -12 10 -18
10 -29 0 -8 -7 -10 -8 -7 -1 8 14 -60 13 -82 0 -10 -7 -12 -5 -6 4 6 10 4 12
-7 7 -9 -3 -19 -3 -22 1 -10 9 -37 11 -31 2 7 -11 -27 -23 -34 -12 -8 10 -51
11 -45 0 3 -4 1 -8 -5 -8 -5 0 -12 4 -15 9 -8 12 -103 -36 -110 -55 -4 -10 -2
-13 6 -8 7 4 2 -6 -10 -23 -16 -23 -19 -33 -10 -36 10 -4 10 -6 0 -6 -9 -1
-10 -6 -2 -20 7 -14 7 -22 0 -26 -8 -5 -7 -12 2 -23 11 -13 11 -14 -2 -7 -13
7 -13 6 -2 -7 10 -13 10 -17 0 -21 -10 -4 -10 -6 1 -6 10 -1 11 -4 2 -15 -9
-10 -9 -16 -1 -21 8 -5 7 -11 -2 -23 -7 -9 -8 -13 -2 -9 7 4 12 -2 12 -18 0
-15 -5 -22 -12 -18 -6 3 -2 -3 8 -15 18 -21 18 -22 1 -22 -18 0 -18 -1 1 -15
13 -10 14 -14 5 -15 -11 0 -11 -3 0 -17 12 -15 12 -16 -3 -10 -12 4 -15 2 -11
-8 3 -8 10 -12 16 -8 6 4 7 1 2 -7 -4 -7 -2 -16 6 -21 11 -7 9 -9 -6 -9 -15 0
-16 -3 -7 -12 16 -16 15 -31 0 -23 -7 3 -6 0 3 -6 16 -12 16 -14 0 -28 -9 -9
-10 -11 -2 -6 12 8 12 7 3 -12 -9 -16 -9 -24 0 -29 7 -5 8 -3 3 7 -5 8 -4 10
0 6 11 -10 16 -39 5 -32 -4 2 -7 -6 -7 -20 0 -16 4 -22 11 -18 7 5 7 2 -1 -8
-12 -15 -12 -36 0 -56 4 -6 2 -15 -4 -19 -8 -5 -9 -3 -4 6 5 8 4 11 -2 7 -6
-4 -8 -18 -5 -33 3 -19 7 -22 13 -12 6 9 9 9 9 1 0 -6 -5 -15 -10 -18 -6 -3
-8 -20 -5 -36 4 -23 2 -29 -7 -24 -7 4 -5 0 4 -7 15 -13 15 -15 0 -26 -9 -6
-12 -11 -7 -11 23 3 29 -2 16 -10 -8 -5 -15 -19 -16 -30 -1 -11 2 -18 6 -16 4
3 10 -2 13 -11 3 -8 2 -13 -2 -10 -4 2 -14 1 -22 -5 -13 -7 -12 -9 3 -9 9 0
17 -5 17 -11 0 -5 -6 -7 -12 -4 -7 4 -4 -1 6 -9 19 -15 19 -16 2 -16 -16 0
-17 -2 -5 -17 10 -11 10 -14 2 -9 -18 10 -16 0 5 -20 16 -17 16 -17 -6 -12
-19 5 -21 4 -12 -7 14 -17 20 -95 8 -95 -4 0 -8 -5 -8 -11 0 -5 6 -7 13 -4 6
4 3 -1 -7 -9 -18 -14 -15 -20 6 -17 3 0 3 -12 -1 -27 -4 -15 -6 -39 -4 -54 2
-14 -1 -30 -7 -33 -8 -5 -7 -12 2 -23 11 -12 11 -16 0 -20 -10 -3 -10 -7 -1
-18 9 -11 8 -14 -2 -14 -11 0 -11 -2 1 -10 12 -8 13 -11 1 -19 -10 -6 -10 -10
-1 -16 9 -6 9 -10 -1 -16 -12 -7 -12 -9 0 -9 10 0 11 -3 2 -14 -8 -10 -9 -16
-1 -21 7 -4 7 -12 0 -25 -7 -13 -7 -21 1 -26 8 -4 7 -9 -2 -15 -12 -7 -12 -9
0 -9 11 0 11 -3 1 -15 -10 -12 -10 -15 0 -15 10 0 10 -3 0 -15 -10 -12 -10
-15 1 -15 10 0 10 -3 1 -12 -7 -7 -8 -17 -2 -29 7 -12 6 -20 0 -24 -8 -5 -7
-11 1 -21 9 -11 9 -14 0 -14 -7 0 -9 -5 -4 -12 10 -17 10 -40 -1 -55 -5 -9 -4
-13 4 -13 10 0 10 -3 1 -14 -9 -10 -9 -16 -1 -21 8 -5 8 -10 0 -20 -8 -10 -7
-14 2 -18 10 -4 10 -6 -1 -6 -11 -1 -11 -4 -1 -16 9 -11 9 -15 1 -15 -11 0 -8
-46 3 -58 3 -2 1 -13 -5 -24 -7 -13 -7 -23 0 -32 6 -7 8 -16 4 -20 -12 -12
-13 -67 -1 -60 7 5 8 2 2 -7 -13 -22 -14 -119 0 -119 7 0 8 -3 1 -8 -6 -4 -11
-18 -10 -32 0 -14 -3 -33 -7 -42 -5 -9 -4 -19 2 -23 5 -3 7 -12 3 -20 -3 -9 1
-15 8 -15 9 0 10 -3 3 -8 -12 -8 -27 -55 -15 -48 4 3 6 -20 6 -50 0 -30 -4
-54 -9 -54 -5 0 -3 -7 4 -15 9 -11 9 -15 1 -15 -7 0 -9 -5 -5 -12 5 -7 7 -25
6 -40 -1 -17 3 -28 10 -28 10 0 9 -3 -1 -9 -8 -5 -11 -16 -8 -25 4 -9 1 -16
-6 -16 -8 0 -6 -4 3 -10 12 -8 12 -10 1 -10 -11 0 -11 -3 -1 -15 8 -10 9 -15
2 -15 -6 0 -9 -7 -6 -15 4 -8 11 -12 18 -8 7 4 6 1 -2 -9 -13 -17 -24 -80 -12
-73 4 3 11 -2 14 -11 3 -8 2 -13 -3 -10 -5 3 -9 -14 -8 -39 0 -28 4 -42 11
-38 6 4 5 -1 -3 -10 -9 -11 -10 -17 -2 -17 6 0 11 -7 11 -15 0 -23 90 -107
103 -97 13 9 54 8 64 -1 3 -4 14 -2 24 4 13 7 19 6 19 -1 0 -7 7 -7 22 1 16 9
23 9 26 0 2 -6 8 -11 13 -11 6 0 7 5 3 11 -5 8 -1 8 13 0 14 -7 23 -7 32 2 9
9 14 9 20 -2 6 -8 14 -10 22 -5 20 12 39 14 39 3 0 -5 5 -9 11 -9 5 0 7 5 3
11 -4 7 1 7 16 -1 15 -8 20 -8 16 -1 -4 6 -3 11 3 11 5 0 13 -5 16 -10 4 -7
12 -7 25 0 22 12 43 13 36 2 -5 -9 41 -8 51 1 11 12 25 8 17 -5 -5 -7 -3 -8 7
-2 21 13 140 13 132 0 -4 -6 0 -6 8 1 10 8 37 11 77 8 47 -3 61 -1 56 8 -4 7
2 4 13 -6 12 -10 23 -14 26 -10 5 7 56 9 65 3 7 -7 29 -5 40 3 8 6 12 6 12 -2
0 -8 6 -8 21 1 17 10 23 10 26 1 3 -7 9 -13 14 -13 6 0 8 3 6 8 -3 4 6 8 19 8
13 1 24 -2 24 -7 0 -5 5 -9 11 -9 5 0 7 5 3 11 -4 7 1 7 16 -1 15 -8 20 -8 16
-1 -8 12 6 15 18 4 10 -10 46 -11 39 0 -3 5 4 6 18 1 25 -8 27 -8 72 -1 15 2
27 0 27 -6 0 -5 7 -4 15 3 11 9 15 9 15 1 0 -7 5 -9 13 -4 18 11 37 12 37 2 0
-5 5 -9 11 -9 5 0 8 3 6 8 -3 4 6 8 19 8 13 1 24 -2 24 -7 0 -6 10 -5 21 2 17
9 20 8 14 -2 -5 -8 -4 -10 4 -5 18 11 61 15 61 5 0 -5 12 -4 27 2 19 7 28 6
33 -2 6 -8 9 -7 13 2 4 10 6 10 6 2 1 -9 8 -10 26 -3 17 7 25 6 25 -1 0 -8 5
-7 15 1 12 10 15 10 15 -1 0 -11 2 -11 10 1 9 13 10 13 10 0 0 -13 1 -13 10 0
7 11 10 11 10 2 0 -10 5 -10 20 -2 15 8 20 8 20 -2 0 -9 3 -9 10 2 5 8 10 11
10 5 0 -11 60 -16 60 -5 0 11 34 7 42 -4 4 -6 13 -4 22 3 10 8 16 9 16 3 0
-12 38 -10 58 2 7 4 12 2 12 -4 0 -8 6 -7 21 1 16 8 20 8 14 -1 -6 -9 -3 -9
13 -1 15 8 21 8 24 -1 3 -8 9 -8 25 1 14 7 24 8 28 1 9 -15 27 -12 19 3 -5 9
-4 9 6 0 9 -9 19 -9 33 -2 12 7 17 7 13 1 -3 -6 4 -9 18 -8 13 0 22 4 19 9 -2
4 1 7 6 7 6 0 11 -4 11 -10 0 -12 43 -8 52 5 5 6 8 6 8 -1 0 -6 13 -11 30 -11
16 0 27 5 23 10 -4 6 -1 7 8 1 19 -12 30 -12 53 -1 10 5 16 5 13 0 -3 -5 21
-8 53 -8 32 0 56 4 53 9 -4 5 0 5 8 0 21 -13 109 -13 109 0 0 8 2 8 8 0 8 -13
40 -12 61 1 9 5 12 4 7 -3 -4 -7 4 -10 23 -10 18 1 28 5 24 11 -4 6 -1 7 8 1
23 -14 51 -16 43 -2 -4 7 -3 8 5 4 20 -13 61 -14 61 -2 0 6 4 5 9 -3 7 -10 13
-11 31 -1 12 7 20 8 17 3 -3 -5 3 -9 13 -9 10 0 17 3 15 6 -1 3 3 11 11 18 8
7 14 9 14 5 0 -4 5 0 11 10 5 9 7 22 4 27 -4 6 -3 9 2 8 4 -2 9 2 11 7 2 6 10
14 18 18 13 7 13 11 2 25 -10 12 -10 14 0 8 7 -4 12 -1 12 9 0 10 -5 13 -12 9
-8 -5 -8 -3 -2 7 13 20 13 182 0 191 -8 5 -7 8 1 8 8 0 12 14 11 40 -1 25 -5
37 -12 33 -7 -4 -6 -1 1 8 14 17 14 81 1 73 -5 -4 -4 4 4 15 11 18 11 23 -2
31 -13 9 -7 14 12 11 4 0 5 6 2 14 -4 8 -11 12 -17 8 -6 -3 -3 4 5 16 15 21
14 66 -1 56 -4 -2 -7 5 -6 16 1 11 8 25 16 30 11 7 10 9 -5 9 -19 0 -19 0 -1
13 14 11 15 16 5 22 -9 6 -11 4 -5 -5 5 -9 4 -11 -4 -6 -8 6 -9 12 -2 20 7 9
7 17 -2 26 -9 10 -9 11 1 6 9 -6 11 0 8 20 -3 17 0 31 7 36 8 5 5 8 -8 9 l-20
0 20 9 c19 8 19 9 1 9 -19 1 -19 1 -1 14 14 11 15 16 5 22 -9 6 -11 4 -5 -5 5
-9 4 -11 -4 -6 -6 4 -8 13 -4 19 13 21 12 88 -1 80 -7 -5 -7 -2 1 8 7 9 8 20
3 29 -4 7 -5 23 -1 34 5 12 6 27 3 35 -3 8 0 11 7 7 7 -5 9 -1 5 8 -3 9 -11
16 -17 16 -6 0 -3 6 8 13 11 9 14 16 7 20 -5 4 -8 17 -5 30 4 18 3 19 -6 7 -7
-9 -11 -10 -11 -3 0 6 4 14 9 17 4 3 7 49 6 103 0 54 3 106 7 115 7 13 5 16
-7 12 -11 -5 -13 -2 -9 10 3 9 10 14 14 11 5 -3 6 4 3 15 -3 11 -9 18 -13 15
-11 -7 -6 22 5 32 4 4 5 2 0 -6 -5 -9 -4 -12 3 -7 7 4 8 17 2 36 -5 17 -6 30
-3 30 3 0 -1 8 -8 17 -10 12 -11 15 -1 9 10 -6 12 7 10 63 -2 39 1 71 5 71 4
0 4 8 -2 17 -7 13 -5 23 7 38 15 17 15 18 1 7 -14 -10 -18 -10 -23 3 -3 9 -2
13 4 10 6 -3 10 -2 10 4 0 5 -5 13 -12 17 -7 5 -5 11 7 21 11 7 13 13 7 13 -7
0 -12 5 -12 11 0 5 4 7 10 4 6 -3 7 1 4 9 -3 9 -10 13 -15 10 -5 -3 -6 2 -3
10 3 9 10 13 15 10 5 -3 6 2 3 11 -4 8 -2 21 4 28 7 8 6 18 -4 31 -7 10 -11
23 -8 28 3 5 0 16 -7 24 -10 12 -9 13 6 8 14 -6 16 -4 10 6 -4 7 -8 27 -7 44
0 17 -5 34 -11 38 -7 5 -2 8 13 8 20 0 22 2 10 10 -17 11 -20 32 -5 42 7 5 6
8 -1 8 -7 0 -9 11 -6 25 3 16 0 25 -9 25 -8 0 -5 6 7 15 10 8 14 15 7 15 -6 0
-9 9 -6 20 3 11 0 27 -7 35 -11 13 -10 14 5 9 14 -6 16 -4 9 7 -4 8 -7 25 -5
38 1 13 -1 21 -6 18 -6 -4 -10 0 -10 7 0 9 7 12 16 8 14 -5 14 -3 0 14 -18 21
-15 48 4 38 7 -3 4 1 -6 9 -17 14 -17 15 0 21 10 4 13 10 8 14 -6 4 -10 23
-10 42 1 19 -4 38 -10 42 -6 5 -6 8 3 8 6 0 12 9 12 21 0 11 -4 17 -10 14 -5
-3 -10 -2 -10 4 0 5 5 11 10 13 13 4 16 35 6 67 -6 18 -5 22 5 17 8 -4 5 0 -5
8 -20 16 -20 16 0 17 10 0 14 3 8 5 -7 3 -9 14 -6 26 4 16 2 19 -8 13 -10 -6
-11 -4 -4 6 12 20 16 51 5 45 -5 -3 -7 3 -4 14 3 11 9 17 14 14 5 -3 6 2 3 10
-3 9 -11 13 -18 9 -8 -5 -8 -3 -1 8 6 8 12 27 14 43 2 21 -1 26 -11 20 -9 -5
-8 -2 2 11 11 14 12 19 3 22 -7 3 -13 11 -13 19 0 8 -4 14 -10 14 -5 0 -10 7
-10 15 0 9 -9 15 -22 15 -12 0 -18 3 -15 7 12 12 -27 32 -40 21 -9 -7 -13 -7
-13 1 0 9 -5 9 -20 1 -13 -7 -20 -7 -20 -1 0 7 -9 7 -26 1 -16 -7 -23 -7 -19
0 3 6 -3 10 -14 10 -11 0 -23 -4 -26 -10 -3 -5 -12 -10 -18 -10 -7 0 -6 4 3
11 11 7 -5 9 -57 6 -39 -2 -79 1 -88 6 -13 7 -16 6 -11 -2 4 -6 2 -11 -3 -11
-6 0 -11 6 -11 13 0 8 -4 7 -10 -3 -5 -8 -10 -10 -10 -4 0 6 -7 11 -15 11 -12
0 -12 -3 -2 -15 10 -13 9 -14 -11 -3 -12 7 -20 16 -18 20 3 4 -1 8 -8 8 -8 0
-12 -5 -10 -11 7 -18 -70 -14 -78 4 -5 12 -7 12 -7 -2 -1 -10 -6 -18 -12 -18
-5 0 -8 4 -5 8 2 4 -4 8 -15 8 -13 0 -18 -5 -14 -15 4 -10 2 -11 -8 -3 -7 6
-31 10 -53 9 -21 -2 -47 1 -58 6 -12 6 -16 5 -12 -1 7 -11 -76 -8 -95 4 -7 4
-9 3 -6 -3 4 -6 0 -14 -9 -17 -8 -3 -13 -2 -10 3 3 5 -1 12 -10 15 -8 3 -12 2
-9 -4 3 -6 2 -10 -4 -10 -5 0 -11 6 -14 13 -3 9 -8 9 -18 -2 -12 -12 -12 -13
0 -6 9 5 12 4 7 -3 -7 -12 -65 4 -79 22 -5 7 -7 2 -4 -11 3 -15 1 -20 -9 -16
-8 3 -11 10 -7 17 3 6 1 6 -8 -1 -15 -15 -33 -17 -25 -4 3 4 -6 6 -19 3 -14
-2 -22 -9 -19 -14 4 -6 -6 -2 -22 8 -15 11 -25 14 -21 8 4 -7 0 -14 -8 -18 -8
-3 -17 -1 -20 3 -7 13 -75 11 -75 -2 0 -6 -7 -2 -16 9 -8 10 -12 13 -8 5 5
-10 1 -11 -17 -5 -13 4 -31 6 -39 5 -8 0 -23 -1 -33 -2 -11 0 -15 -5 -10 -12
3 -7 -3 -4 -14 6 -16 14 -23 15 -29 6 -5 -8 -3 -10 6 -4 9 6 11 4 6 -4 -6 -9
-13 -8 -29 6 -11 10 -17 13 -14 7 4 -7 -3 -11 -18 -11 -16 0 -22 4 -18 11 4 6
-6 3 -21 -8 -16 -10 -26 -14 -22 -8 7 12 -38 22 -56 11 -7 -4 -19 -3 -27 4
-12 9 -13 9 -8 0 6 -9 -7 -11 -52 -9 -33 3 -65 7 -71 11 -5 3 -13 -1 -16 -9
-3 -9 -10 -16 -16 -16 -5 0 -6 5 -3 10 6 9 -18 15 -40 10 -5 -2 -19 -2 -30 -2
-10 1 -26 -4 -34 -11 -12 -10 -13 -9 -6 2 6 11 4 13 -7 8 -9 -3 -19 -3 -22 1
-11 10 -37 11 -30 1 3 -5 11 -6 17 -3 7 4 9 3 4 -1 -9 -10 -57 -14 -51 -4 2 4
-5 9 -16 12 -13 3 -18 1 -13 -6 4 -6 0 -8 -9 -4 -9 3 -20 1 -26 -5 -6 -6 -12
-6 -17 3 -5 8 -4 10 3 5 8 -5 10 -2 6 8 -8 21 -11 20 -19 -4z m509 -8 c3 -5
-1 -9 -9 -9 -8 0 -12 4 -9 9 3 4 7 8 9 8 2 0 6 -4 9 -8z m240 0 c3 -5 -1 -9
-9 -9 -8 0 -12 4 -9 9 3 4 7 8 9 8 2 0 6 -4 9 -8z m-209 -706 c7 3 16 1 20 -5
10 -17 25 -13 25 7 0 10 3 13 8 6 4 -5 25 -11 47 -11 21 0 41 -6 43 -12 2 -6
8 -9 13 -5 5 3 9 -1 9 -8 0 -11 2 -11 9 0 6 11 11 10 25 -3 9 -9 16 -11 16 -5
0 6 5 8 10 5 6 -4 7 -11 4 -17 -5 -7 -1 -9 9 -5 10 3 17 2 17 -3 0 -6 7 -10
15 -10 8 0 15 -4 15 -10 0 -5 7 -10 16 -10 8 0 12 -4 9 -10 -3 -5 3 -10 14
-10 13 0 21 -7 21 -16 0 -10 5 -14 15 -10 11 4 15 0 13 -12 -2 -9 2 -16 9 -15
8 2 10 -4 6 -14 -4 -11 -3 -14 5 -9 8 5 12 0 12 -12 0 -10 9 -27 20 -37 13
-12 18 -25 14 -38 -4 -13 -2 -17 5 -13 7 5 9 1 5 -8 -4 -9 -1 -16 6 -16 7 0
10 -8 7 -20 -3 -11 -2 -20 3 -20 4 0 10 -9 13 -20 3 -13 1 -18 -6 -13 -7 4 -5
-1 3 -11 8 -10 13 -32 11 -48 -2 -23 0 -28 11 -22 10 6 11 5 1 -8 -7 -8 -10
-18 -6 -21 3 -4 1 -7 -5 -7 -6 0 -9 -6 -6 -13 3 -8 -3 -20 -12 -28 -11 -9 -15
-9 -10 -2 5 9 2 11 -8 7 -9 -3 -13 -10 -10 -15 3 -5 -7 -4 -21 1 -34 13 -38
13 -29 -2 4 -7 -3 -4 -16 7 -13 11 -20 14 -16 8 4 -8 1 -13 -9 -13 -9 0 -13 5
-9 11 4 8 0 8 -15 0 -16 -9 -21 -9 -21 1 0 9 -3 9 -12 0 -8 -8 -15 -9 -25 -1
-9 9 -17 8 -28 -1 -10 -9 -15 -9 -15 -1 0 6 -5 11 -11 11 -5 0 -7 -6 -3 -12 6
-9 3 -9 -9 0 -9 8 -22 10 -28 6 -9 -5 -10 -2 -6 10 6 14 3 17 -9 12 -15 -6
-15 -4 -3 11 8 10 9 14 2 10 -7 -5 -17 2 -24 15 -12 22 -11 22 7 8 10 -8 6 1
-11 19 -22 24 -25 30 -11 25 15 -6 17 -4 10 7 -9 14 -10 19 -13 40 0 5 -5 7
-11 4 -5 -3 -10 0 -10 7 0 7 -15 27 -32 43 -17 17 -28 23 -24 15 5 -10 2 -9
-7 2 -11 14 -16 15 -27 5 -10 -9 -11 -9 -6 1 11 19 -35 15 -68 -7 -17 -11 -35
-17 -40 -14 -6 4 -4 -2 4 -13 8 -10 11 -16 6 -12 -12 10 -48 -11 -41 -23 4 -5
0 -9 -7 -10 -10 0 -10 -2 0 -6 6 -2 12 -9 12 -14 0 -6 -4 -8 -9 -5 -10 7 -33
-42 -26 -55 4 -5 2 -9 -4 -9 -5 0 -8 -11 -7 -25 2 -14 -1 -22 -7 -18 -6 4 -8
-4 -5 -21 3 -14 1 -29 -4 -32 -5 -3 -4 -12 3 -20 6 -8 9 -17 5 -21 -3 -3 -6 0
-6 8 0 12 -2 12 -10 -1 -5 -8 -6 -19 -2 -25 4 -5 7 -17 6 -25 -1 -8 -2 -21 -3
-28 -1 -8 -6 -10 -13 -6 -8 5 -7 1 2 -10 15 -20 23 -49 10 -41 -4 3 -7 -9 -6
-25 0 -17 5 -30 10 -30 5 0 1 -9 -9 -20 -17 -18 -17 -20 -1 -26 14 -5 15 -9 4
-15 -11 -7 -10 -11 2 -19 12 -8 12 -10 1 -10 -10 0 -11 -3 -2 -14 10 -11 8
-17 -6 -25 -14 -8 -15 -10 -3 -11 9 0 16 -9 17 -20 1 -11 -2 -18 -6 -16 -4 3
-8 -1 -8 -9 0 -8 4 -12 9 -9 4 3 8 0 8 -5 0 -6 -6 -11 -12 -11 -10 0 -9 -3 1
-9 8 -5 10 -14 6 -21 -5 -9 -4 -11 3 -6 7 4 12 2 12 -3 0 -6 -6 -11 -12 -12
-10 0 -10 -2 0 -6 10 -4 9 -9 -5 -20 -10 -8 -12 -12 -5 -8 12 6 17 -10 14 -47
-1 -10 4 -18 11 -18 8 0 7 -4 -3 -10 -10 -6 -11 -10 -2 -10 6 0 12 -5 12 -11
0 -5 -6 -7 -12 -3 -9 5 -9 3 1 -9 7 -9 18 -14 25 -10 6 4 5 -1 -3 -10 -11 -14
-11 -20 0 -34 12 -15 12 -16 -1 -8 -11 6 -10 3 3 -12 9 -11 14 -23 10 -26 -3
-4 -1 -7 5 -7 7 0 12 -6 12 -13 0 -7 9 -19 20 -27 11 -8 20 -20 20 -26 0 -7 8
-11 18 -10 10 0 16 -5 14 -13 -3 -12 -1 -12 14 0 16 13 17 12 11 -6 -6 -18 -6
-18 6 -3 9 12 18 14 30 7 13 -8 17 -6 18 8 0 10 3 13 5 6 3 -7 12 -9 20 -6 7
3 11 9 8 14 -3 5 0 9 6 9 6 0 9 4 5 9 -3 5 3 12 14 16 11 3 22 13 25 21 4 9 2
12 -5 8 -7 -4 -10 -1 -7 7 3 8 10 14 15 14 6 0 15 4 20 9 5 5 3 6 -4 2 -19
-11 -16 5 5 21 9 8 12 12 5 9 -8 -4 -11 3 -9 21 2 15 8 29 15 31 6 2 11 10 11
17 0 8 5 17 12 21 7 5 8 3 3 -7 -5 -8 1 -5 14 5 23 21 84 30 74 12 -3 -6 0 -5
8 2 14 13 33 17 25 4 -2 -4 4 -8 14 -8 10 0 16 4 14 8 -3 4 0 8 5 8 6 0 11 -6
11 -12 0 -9 4 -8 10 2 9 13 10 13 10 0 0 -13 1 -13 10 0 5 8 10 10 10 4 0 -6
7 -11 15 -11 10 0 14 6 10 16 -4 14 -4 14 7 1 7 -9 20 -14 29 -12 9 1 24 -4
32 -13 9 -8 20 -15 24 -14 20 3 25 -2 14 -15 -9 -11 -9 -16 0 -22 8 -4 9 -3 5
4 -5 8 -1 10 9 5 9 -3 13 -9 8 -12 -13 -8 -25 -44 -13 -36 6 3 10 1 10 -4 0
-6 -4 -11 -10 -11 -5 0 -10 -9 -10 -20 0 -11 -6 -20 -12 -20 -10 0 -10 -2 0
-9 11 -7 11 -11 -2 -24 -12 -11 -13 -17 -3 -20 7 -3 4 -6 -6 -6 -10 -1 -15 -5
-12 -11 3 -5 1 -18 -4 -28 -7 -13 -6 -23 2 -31 9 -10 8 -11 -4 -6 -10 4 -19 0
-23 -10 -3 -9 -2 -13 4 -10 6 3 7 -1 4 -9 -3 -9 -10 -13 -15 -10 -8 5 -14 -18
-10 -39 1 -5 -3 -6 -9 -2 -9 6 -35 -41 -32 -57 1 -5 -1 -7 -6 -7 -21 4 -32 -2
-26 -13 5 -7 2 -9 -8 -5 -10 3 -15 0 -14 -11 1 -11 -6 -16 -17 -16 -10 1 -16
-1 -13 -4 10 -9 -26 -42 -46 -42 -10 0 -18 -4 -18 -10 0 -5 -7 -10 -16 -10 -8
0 -12 -4 -9 -10 3 -5 1 -10 -4 -10 -6 0 -11 6 -11 13 0 6 -9 1 -20 -13 -11
-14 -20 -19 -20 -11 0 11 -3 11 -17 0 -15 -12 -16 -12 -8 1 8 13 7 13 -8 1
-10 -8 -20 -11 -24 -7 -3 3 -17 -1 -31 -10 -13 -9 -22 -12 -19 -6 7 11 -63 9
-81 -2 -7 -4 -12 -2 -12 6 0 9 -3 9 -10 -2 -5 -8 -10 -10 -10 -4 0 7 -7 15
-16 18 -8 3 -12 2 -9 -4 3 -6 1 -10 -4 -10 -6 0 -11 8 -12 18 0 10 -3 12 -6 5
-2 -7 -11 -13 -18 -13 -7 0 -16 6 -18 13 -4 9 -8 8 -16 -3 -8 -12 -11 -12 -17
4 -5 14 -9 15 -15 4 -7 -10 -9 -11 -9 0 0 7 -4 10 -10 7 -5 -3 -10 2 -10 12 0
15 -2 16 -10 3 -6 -10 -10 -11 -10 -2 0 6 -3 11 -7 10 -16 -4 -51 13 -57 28
-3 9 -11 12 -18 8 -7 -5 -9 -2 -5 9 4 12 1 15 -15 12 -11 -3 -18 -2 -15 1 8 8
-26 42 -37 36 -5 -3 -6 0 -2 7 4 6 1 14 -8 17 -8 3 -12 12 -9 20 3 9 -2 14
-13 15 -12 0 -14 3 -6 6 10 4 8 9 -5 21 -18 17 -26 34 -27 63 0 9 -6 15 -12
12 -8 -3 -11 5 -9 22 1 15 -3 29 -10 31 -7 3 -10 14 -7 26 3 13 1 19 -5 15 -5
-4 -10 6 -10 23 0 17 5 30 11 30 6 0 5 4 -2 9 -7 4 -14 14 -15 22 -2 8 -6 19
-9 24 -4 6 -3 17 2 25 5 8 2 23 -8 39 -10 14 -12 22 -4 18 6 -5 12 -4 12 2 0
6 -6 11 -12 12 -10 0 -10 2 0 6 6 2 9 9 6 15 -11 17 -10 68 0 68 6 0 4 5 -4
10 -13 9 -13 10 0 10 9 0 11 3 5 8 -13 9 -15 42 -3 42 6 0 5 6 -2 15 -10 12
-10 15 1 16 8 0 5 4 -6 9 -11 5 -14 9 -6 9 7 1 11 7 7 16 -3 8 -1 15 4 15 6 0
6 9 0 25 -5 14 -6 25 -2 25 4 0 7 11 7 24 0 13 -3 22 -7 19 -5 -2 -8 1 -8 6 0
6 5 11 10 11 7 0 7 6 0 20 -9 16 -8 20 7 21 16 0 16 1 -2 8 -19 8 -19 8 0 19
11 6 14 12 8 12 -7 0 -13 7 -13 16 0 9 5 12 12 8 7 -5 8 -3 2 7 -12 20 -14 39
-4 39 5 0 7 9 5 20 -2 11 -1 22 3 24 4 2 7 25 7 50 -1 25 3 46 8 46 5 0 4 6
-2 14 -10 12 -8 17 9 26 16 8 18 15 11 24 -7 9 -7 16 1 24 7 7 8 12 4 12 -5 0
-1 12 9 26 11 18 13 24 4 19 -8 -4 -4 2 9 14 12 12 22 28 22 36 0 8 6 15 13
15 8 0 7 4 -3 10 -14 9 -7 15 14 11 5 -1 6 5 3 13 -3 8 1 17 9 20 9 3 12 10 9
16 -3 5 -1 10 5 10 6 0 8 5 5 10 -6 9 7 14 27 11 4 0 5 6 2 14 -5 13 6 20 28
16 4 0 5 6 2 14 -4 10 3 18 20 25 14 5 26 14 26 20 0 5 6 9 13 8 6 -2 11 3 9
11 -3 12 -1 12 14 0 10 -8 15 -9 11 -3 -8 13 16 37 27 27 3 -4 13 2 22 13 8
10 13 14 10 7 -4 -7 1 -11 14 -10 13 1 19 6 15 16 -4 11 -2 11 8 3 10 -9 17
-8 27 1 10 9 11 9 6 0 -5 -9 -2 -11 8 -7 9 3 13 11 10 18 -3 6 2 2 10 -8 14
-17 16 -17 16 -3 0 10 5 14 14 11 8 -3 17 0 21 6 5 8 11 8 17 2 6 -6 16 -8 23
-6z m1550 -435 c3 -5 1 -12 -5 -16 -5 -3 -10 1 -10 9 0 18 6 21 15 7z m-3045
-1967 c0 -8 -5 -12 -10 -9 -6 4 -8 11 -5 16 9 14 15 11 15 -7z"/>
<path d="M9156 7278 c3 -5 10 -6 15 -3 13 9 11 12 -6 12 -8 0 -12 -4 -9 -9z"/>
<path d="M942 7261 c-8 -4 -33 -8 -57 -7 -33 1 -41 -2 -37 -13 4 -10 1 -13
-11 -8 -10 4 -17 2 -17 -5 0 -6 -3 -9 -6 -5 -9 8 -33 -16 -26 -27 3 -5 -3 -6
-13 -2 -15 5 -16 4 -5 -9 8 -10 9 -15 1 -15 -6 0 -10 -6 -8 -12 1 -7 -4 -12
-11 -10 -9 2 -11 -2 -5 -10 4 -7 6 -21 5 -30 -2 -10 2 -18 9 -18 7 0 4 -7 -7
-16 -10 -8 -13 -13 -6 -9 6 3 12 1 12 -4 0 -6 -4 -11 -10 -11 -5 0 -10 -5 -10
-11 0 -5 6 -7 13 -3 7 5 6 0 -3 -11 -8 -10 -10 -16 -3 -12 8 5 10 -4 8 -30 -2
-21 1 -43 7 -50 8 -10 7 -12 -3 -8 -10 4 -15 -1 -15 -14 0 -16 3 -18 15 -8 12
10 13 9 2 -10 -6 -13 -8 -23 -4 -23 4 0 1 -5 -7 -10 -10 -6 -11 -10 -3 -10 9
0 10 -7 5 -22 -11 -30 -8 -64 7 -82 9 -11 9 -16 0 -22 -8 -5 -9 -3 -4 6 5 9 4
11 -4 6 -9 -6 -9 -11 0 -22 10 -12 8 -13 -7 -8 -16 4 -16 4 -4 -5 19 -12 18
-67 0 -63 -11 3 -11 0 0 -12 7 -9 9 -16 5 -16 -4 0 -3 -6 2 -12 6 -7 8 -26 6
-41 -3 -22 -1 -27 9 -21 10 6 10 4 0 -9 -8 -9 -12 -22 -10 -29 3 -7 -2 -18
-11 -25 -14 -10 -12 -11 9 -7 19 4 21 3 11 -4 -8 -6 -15 -20 -16 -31 -1 -16 1
-18 12 -10 18 16 16 4 -3 -15 -8 -9 -11 -16 -5 -16 6 0 11 -5 11 -11 0 -5 -4
-8 -8 -5 -10 6 -8 -42 3 -51 4 -5 5 -2 0 6 -6 10 -4 12 5 6 10 -6 9 -11 -4
-21 -11 -8 -13 -14 -7 -19 8 -4 8 -12 1 -25 -8 -15 -6 -21 7 -29 17 -10 17
-10 -1 -11 -15 0 -16 -3 -7 -14 8 -10 9 -16 1 -21 -7 -4 -7 -12 0 -26 6 -10 8
-19 4 -19 -3 0 0 -8 7 -17 10 -11 10 -14 2 -9 -17 9 -17 -6 0 -23 10 -12 9
-13 -7 -7 -15 5 -17 4 -7 -8 9 -10 9 -16 1 -21 -8 -5 -8 -11 1 -21 8 -10 8
-14 0 -14 -6 0 -11 -4 -11 -10 0 -5 3 -9 8 -9 19 3 25 -2 12 -11 -11 -7 -11
-10 -2 -10 7 0 10 -5 7 -10 -4 -6 -9 -8 -13 -6 -4 2 -7 -6 -7 -19 0 -19 3 -21
15 -12 11 9 10 5 -3 -15 -12 -19 -14 -29 -5 -34 7 -5 8 -3 3 6 -6 9 -4 11 4 5
9 -5 10 -10 2 -18 -15 -15 -14 -30 2 -21 8 5 8 2 -2 -9 -11 -14 -11 -17 0 -17
9 0 10 -3 4 -8 -12 -9 -12 -42 -1 -61 6 -10 5 -12 -2 -7 -13 8 -16 -6 -5 -18
11 -11 9 -50 -2 -59 -6 -6 -6 -10 2 -14 8 -3 11 -14 7 -30 -4 -16 -2 -29 7
-35 11 -8 10 -9 -3 -4 -21 6 -24 -8 -4 -26 11 -11 11 -15 -3 -26 -12 -10 -12
-11 -1 -6 13 7 13 5 1 -9 -11 -14 -11 -17 0 -17 11 0 11 -2 -1 -10 -11 -7 -11
-10 -2 -10 10 0 10 -5 1 -21 -6 -12 -7 -19 -2 -16 5 4 10 0 10 -8 0 -8 -4 -12
-9 -9 -4 3 -8 0 -8 -5 0 -6 5 -11 11 -11 8 0 7 -6 -2 -17 -10 -11 -10 -14 -1
-9 15 9 16 -6 0 -22 -7 -7 -8 -12 -2 -12 5 0 10 -18 9 -40 0 -22 -4 -40 -8
-40 -5 0 -5 -6 0 -12 11 -19 13 -39 2 -32 -13 8 -11 -10 3 -24 9 -9 9 -12 0
-12 -7 0 -12 -5 -12 -11 0 -5 6 -7 13 -3 8 5 8 2 -2 -9 -10 -13 -10 -17 -1
-17 10 0 10 -3 1 -14 -9 -10 -9 -16 -1 -21 8 -5 8 -11 -1 -21 -9 -11 -9 -14 0
-14 9 0 9 -5 1 -20 -8 -15 -8 -20 2 -20 10 0 10 -2 0 -9 -17 -11 -17 -21 0
-32 11 -7 11 -9 -1 -9 -9 0 -10 -4 -5 -12 11 -16 11 -39 1 -55 -5 -8 -3 -13 4
-13 8 0 9 -4 0 -13 -8 -10 -7 -17 2 -27 9 -10 9 -11 0 -6 -7 4 -13 2 -13 -3 0
-6 5 -11 11 -11 8 0 8 -5 -1 -15 -10 -12 -10 -15 0 -15 10 0 10 -3 0 -15 -9
-10 -9 -15 -1 -15 6 0 11 -5 11 -11 0 -6 -8 -8 -17 -5 -17 6 -17 5 -1 -7 11
-9 13 -18 7 -29 -6 -11 -5 -19 1 -23 5 -3 10 -11 10 -16 0 -6 -4 -8 -9 -5 -10
7 -9 -13 2 -31 4 -6 1 -14 -5 -16 -10 -4 -9 -6 1 -6 11 -1 11 -4 1 -16 -9 -10
-9 -15 -1 -15 6 0 11 -5 11 -11 0 -5 -6 -7 -12 -3 -10 6 -10 4 0 -7 6 -7 12
-17 12 -22 0 -4 -6 -5 -12 -1 -10 6 -10 4 0 -7 14 -15 16 -33 3 -25 -10 7 -9
-13 2 -31 4 -6 2 -15 -4 -19 -8 -4 -7 -9 2 -15 12 -8 11 -11 -1 -19 -11 -7
-11 -10 -2 -10 9 0 10 -5 3 -18 -7 -13 -6 -23 2 -32 9 -10 9 -14 -1 -17 -6 -3
-9 -10 -5 -16 10 -17 12 -57 1 -51 -4 3 -8 0 -8 -5 0 -6 6 -11 13 -11 8 0 7
-4 -3 -10 -10 -6 -11 -10 -2 -10 6 0 12 -5 12 -11 0 -5 -4 -8 -10 -4 -5 3 -3
-7 5 -21 8 -15 11 -32 8 -37 -3 -6 -1 -7 5 -3 8 5 12 0 12 -13 0 -15 5 -19 18
-14 9 3 14 3 10 -2 -10 -10 10 -47 22 -40 5 3 11 1 15 -5 4 -6 12 -7 24 0 12
6 22 5 28 -1 8 -8 17 -8 31 0 26 14 42 14 22 0 -11 -7 -7 -9 17 -5 17 2 36 7
42 10 5 3 11 1 13 -5 3 -9 10 -9 27 1 15 7 21 8 17 1 -10 -15 7 -14 22 1 9 9
12 9 12 -3 0 -12 2 -12 10 1 6 9 10 10 10 3 0 -12 37 -12 58 1 7 4 12 3 12 -2
0 -10 36 -9 46 1 4 4 14 2 21 -5 11 -9 19 -9 34 0 12 8 19 8 19 2 0 -7 7 -7
21 1 16 8 20 8 14 -1 -6 -9 -2 -9 14 -1 16 9 21 9 21 0 0 -6 6 -9 13 -6 6 3
21 8 32 12 16 6 17 5 5 -4 -12 -9 -10 -11 12 -8 15 1 30 6 34 10 4 4 13 2 20
-4 9 -7 19 -7 33 0 25 14 41 14 21 1 -11 -8 -8 -9 15 -6 17 2 32 5 35 6 3 1
10 1 15 0 42 -9 65 -8 59 2 -5 7 -2 8 7 2 19 -12 41 -11 58 1 10 7 13 7 8 -1
-8 -14 95 -13 105 1 5 6 8 6 8 -2 0 -6 9 -11 20 -10 11 1 20 5 20 10 0 6 5 6
13 0 14 -11 27 -11 44 0 6 4 14 3 17 -2 6 -9 61 -6 78 5 7 4 8 2 4 -4 -4 -7 1
-10 14 -9 11 1 20 6 20 12 0 5 4 4 9 -3 4 -8 12 -14 16 -14 4 0 12 6 16 14 7
10 9 10 9 0 0 -10 5 -10 21 -1 15 8 19 8 15 0 -9 -14 0 -14 26 0 15 8 19 8 14
0 -4 -6 -2 -11 3 -11 6 0 11 6 11 13 0 9 2 9 8 0 8 -13 41 -11 64 3 7 4 8 3 4
-4 -10 -16 7 -15 23 1 11 10 12 9 6 -3 -8 -13 -7 -13 8 -1 11 9 17 10 17 2 0
-12 40 -9 61 5 8 4 9 3 5 -4 -10 -16 7 -15 23 1 11 10 12 9 6 -3 -8 -13 -7
-13 8 -1 11 9 17 10 17 2 0 -12 40 -9 61 5 8 4 9 3 5 -4 -10 -16 7 -15 23 1
11 10 12 9 6 -3 -8 -13 -7 -13 8 -1 11 9 17 10 17 2 0 -11 39 -9 59 3 5 4 12
2 16 -4 3 -5 11 -10 16 -10 6 0 8 4 5 8 -2 4 4 8 14 8 10 0 16 -4 13 -8 -5 -9
40 -4 56 6 5 4 12 2 16 -4 3 -5 11 -10 16 -10 6 0 8 4 5 8 -2 4 4 8 14 8 10 0
17 -3 15 -6 -5 -8 360 -4 375 5 8 5 11 4 7 -2 -4 -7 3 -10 17 -9 13 0 22 4 19
9 -2 4 1 7 6 7 6 0 11 -5 11 -10 0 -11 41 -7 61 6 7 4 9 3 6 -3 -4 -5 6 -10
23 -10 18 0 27 4 23 11 -5 8 -2 8 8 1 16 -12 39 -13 56 -2 6 4 14 3 18 -3 9
-15 28 -12 19 3 -6 10 -4 10 7 0 16 -16 33 -17 23 -1 -4 7 -3 8 5 4 6 -4 25
-9 42 -11 21 -3 28 -1 22 8 -5 9 -3 9 8 2 17 -12 39 -13 58 -1 9 6 12 5 8 -1
-4 -5 6 -10 23 -10 18 0 27 4 23 11 -5 8 -2 8 8 1 17 -12 39 -13 58 -1 10 6
12 5 7 -3 -10 -15 25 -11 37 4 4 6 10 6 15 -2 8 -13 41 -11 64 3 6 4 8 3 5 -3
-4 -7 3 -10 17 -9 13 0 22 4 19 9 -2 4 1 7 6 7 6 0 11 -5 11 -10 0 -11 41 -7
61 6 7 4 9 3 6 -3 -4 -7 3 -10 17 -9 13 0 22 4 19 9 -2 4 1 7 6 7 6 0 11 -5
11 -10 0 -11 41 -7 61 6 7 4 9 3 6 -3 -4 -5 6 -10 23 -10 17 0 27 5 23 10 -4
6 -1 7 8 2 19 -12 49 -14 55 -3 3 4 11 8 17 8 7 0 6 -4 -3 -10 -9 -6 4 -8 40
-7 30 1 58 7 62 12 5 6 8 6 8 -2 0 -6 13 -11 30 -11 17 1 27 5 23 11 -4 6 -1
7 7 2 19 -12 90 -12 82 -1 -3 5 2 7 12 3 11 -5 15 -3 10 5 -5 8 -2 9 10 5 10
-4 15 -3 11 3 -3 6 -1 10 5 10 6 0 9 4 6 9 -3 5 1 11 9 15 8 3 15 15 15 26 0
11 6 20 13 20 9 0 8 3 -2 9 -9 6 -10 10 -2 16 9 5 9 11 -1 23 -12 14 -10 14
12 2 21 -11 23 -11 14 1 -7 8 -14 37 -17 64 -2 28 -5 55 -7 60 -5 20 0 36 10
30 6 -3 7 1 4 9 -3 9 -11 13 -18 9 -6 -4 -5 1 3 10 9 12 10 17 2 17 -7 0 -9 5
-6 10 4 6 11 8 16 5 5 -3 6 1 3 9 -3 9 -11 13 -18 9 -6 -4 -5 1 3 10 7 9 10
17 6 17 -4 0 -2 7 5 15 11 13 10 14 -4 9 -14 -5 -15 -3 -6 22 8 21 8 29 -2 36
-11 6 -11 8 0 8 7 0 10 4 7 10 -3 6 0 10 7 10 9 0 9 3 2 8 -6 4 -14 15 -17 26
-6 14 -4 17 9 12 13 -5 14 -4 6 7 -7 8 -9 17 -5 20 3 4 2 7 -4 7 -5 0 -10 7
-10 15 0 8 4 12 9 9 4 -3 8 2 8 10 0 9 -6 16 -12 16 -9 0 -8 4 2 10 13 8 13
10 0 10 -10 0 -11 3 -2 12 8 8 8 17 1 31 -8 14 -8 18 0 13 14 -9 14 7 0 21 -7
7 -5 15 6 27 12 12 13 16 3 16 -12 0 -16 38 -8 60 1 3 1 13 0 24 -1 12 2 16
12 11 10 -6 10 -5 1 5 -6 7 -9 19 -6 28 5 11 2 13 -8 7 -11 -6 -12 -5 -1 6 14
15 17 33 4 25 -5 -3 -9 1 -9 9 0 8 4 12 9 9 4 -3 8 2 8 11 0 9 -4 14 -8 11 -4
-2 -9 5 -9 17 -2 15 0 18 6 9 6 -10 10 -8 14 7 3 12 1 19 -3 16 -5 -3 -11 -1
-15 5 -3 5 -1 10 4 10 6 0 11 5 11 11 0 5 -4 8 -8 5 -5 -3 -9 1 -9 9 0 8 5 11
10 8 6 -4 8 0 4 10 -3 9 -1 18 6 21 9 3 8 5 -1 5 -7 1 -10 6 -7 11 3 6 0 10
-7 10 -9 0 -9 3 2 10 13 8 13 10 1 10 -11 0 -10 4 4 14 18 13 18 13 -1 24 -18
10 -18 11 1 32 14 16 15 19 3 15 -20 -8 -19 32 2 45 12 8 12 10 -5 10 -15 0
-16 3 -7 12 7 7 12 17 12 22 0 6 -5 4 -10 -4 -6 -9 -10 -10 -10 -3 0 7 8 17
17 22 15 8 15 10 3 11 -9 0 -16 9 -16 20 0 12 5 19 12 16 7 -3 10 3 7 15 -3
10 -9 17 -12 14 -4 -2 -8 2 -8 10 0 8 4 12 9 9 4 -3 8 2 8 11 0 9 -4 14 -8 11
-9 -5 -9 43 -1 59 3 6 6 26 7 45 2 27 0 31 -7 20 -6 -8 -11 -10 -11 -4 0 5 5
15 12 22 7 7 9 12 5 12 -4 0 -2 10 4 23 12 21 11 21 -6 7 -16 -13 -17 -13 -10
0 13 21 18 139 5 120 -6 -9 -10 -10 -10 -3 0 6 4 14 10 18 13 8 10 98 -4 107
-7 5 -3 8 9 8 15 0 16 3 7 12 -14 14 -16 32 -3 23 5 -3 13 0 17 6 4 7 3 9 -3
6 -6 -4 -16 0 -23 8 -11 13 -10 14 6 9 16 -6 17 -5 7 7 -16 16 -17 33 -2 23 8
-4 8 -1 1 13 -7 12 -7 25 -1 36 8 13 6 17 -6 17 -8 0 -15 5 -15 11 0 5 5 7 10
4 7 -4 10 6 8 28 -1 19 4 43 12 54 12 15 12 16 0 6 -19 -18 -35 -16 -20 2 6 8
9 23 5 34 -3 11 -1 31 6 43 12 22 11 22 -6 8 -12 -9 -16 -10 -11 -2 4 7 11 26
16 42 7 24 6 28 -8 22 -15 -5 -16 -4 -2 13 8 10 15 19 14 19 -14 17 -22 46
-14 51 7 4 6 13 -1 27 -10 18 -9 20 6 14 14 -5 16 -4 7 7 -7 8 -9 17 -5 20 3
4 2 7 -4 7 -11 0 -11 35 0 46 4 4 1 14 -5 22 -10 11 -8 17 7 28 15 11 15 14 4
14 -9 0 -16 7 -16 15 0 8 5 11 10 8 6 -4 8 0 4 10 -3 9 -1 18 6 21 7 2 4 5 -5
5 -21 1 -23 12 -6 29 9 9 9 12 -2 12 -9 0 -8 6 6 21 10 11 14 20 9 19 -21 -5
-29 1 -15 10 10 6 11 10 3 10 -7 0 -13 5 -13 11 0 5 4 8 8 5 4 -2 8 13 7 34 0
21 -3 36 -7 33 -5 -2 -8 0 -8 6 0 5 5 13 11 17 8 5 8 8 0 14 -9 5 -9 14 -1 34
6 17 6 25 0 21 -6 -3 -10 -2 -10 4 0 5 6 12 13 14 9 4 9 6 -1 6 -7 1 -10 6 -7
11 3 6 1 10 -5 10 -6 0 -8 5 -5 10 4 6 12 7 18 3 7 -4 7 0 -1 10 -8 9 -11 21
-8 26 4 5 2 12 -4 16 -6 4 -7 11 -4 17 5 8 1 9 -12 4 -10 -4 -15 -4 -12 0 11
10 -34 42 -51 36 -9 -3 -12 -1 -7 6 4 7 1 12 -9 12 -10 0 -14 -5 -10 -12 4 -7
1 -6 -7 2 -7 9 -21 14 -32 12 -13 -3 -16 0 -11 9 6 8 4 10 -6 3 -20 -12 -79
-13 -79 0 0 7 -3 7 -8 1 -10 -15 -55 -18 -46 -3 4 7 3 8 -5 4 -21 -13 -61 -17
-61 -6 0 6 -5 8 -12 4 -13 -8 -157 -12 -173 -5 -17 9 -44 8 -39 -1 3 -4 1 -8
-5 -8 -5 0 -13 5 -16 10 -4 7 -13 6 -26 -1 -14 -7 -24 -7 -33 0 -7 6 -16 8
-19 4 -10 -9 -60 -10 -79 0 -10 4 -18 4 -18 -1 0 -4 -9 -8 -20 -9 -12 -1 -18
3 -14 9 4 6 -2 6 -15 -1 -16 -9 -21 -9 -21 1 0 8 -3 9 -8 3 -10 -15 -46 -19
-37 -5 6 9 2 9 -14 1 -16 -9 -21 -9 -21 1 0 8 -3 9 -8 3 -11 -15 -46 -19 -36
-4 5 8 3 10 -7 3 -18 -11 -99 -12 -99 0 0 5 -7 3 -16 -5 -13 -10 -17 -10 -25
2 -5 8 -9 10 -9 4 0 -14 -50 -15 -50 -1 0 7 -3 7 -8 1 -9 -13 -93 -15 -85 -2
4 6 1 7 -8 2 -20 -13 -140 -14 -132 -2 4 6 1 7 -8 1 -22 -13 -42 -14 -58 -1
-12 9 -13 9 -7 0 5 -9 0 -13 -14 -13 -14 0 -19 4 -14 13 6 9 4 9 -7 1 -20 -16
-82 -16 -72 -1 5 9 3 9 -8 0 -8 -6 -33 -10 -57 -8 -23 2 -42 -1 -42 -6 0 -6
-5 -7 -12 -3 -17 10 -108 13 -102 3 7 -13 -30 3 -38 15 -5 8 -8 7 -8 -1 0 -14
-197 -13 -219 1 -10 6 -12 6 -7 -3 9 -14 -30 -11 -53 3 -9 6 -12 5 -8 -1 4 -7
-12 -10 -43 -10 -34 0 -47 3 -43 11 5 8 2 7 -8 -1 -15 -12 -67 -12 -86 0 -6 4
-14 3 -18 -3 -3 -5 -18 -7 -32 -4 -20 5 -24 4 -18 -6 6 -9 4 -11 -6 -4 -21 12
-199 12 -192 -1 3 -5 0 -4 -8 3 -15 14 -43 17 -34 3 3 -6 -6 -7 -22 -2 -16 4
-34 6 -41 4 -7 -3 -19 0 -26 6 -10 8 -17 7 -26 -4 -12 -14 -15 -14 -30 0 -12
11 -20 13 -25 6 -3 -6 -13 -11 -21 -11 -10 0 -12 5 -8 13 5 8 2 8 -9 -2 -14
-11 -20 -11 -34 0 -9 8 -14 9 -10 3 4 -7 -11 -10 -43 -10 -28 1 -50 5 -50 10
0 6 -7 1 -16 -10 -8 -10 -13 -14 -10 -8 3 7 -4 14 -15 17 -16 4 -19 2 -14 -11
5 -13 3 -14 -6 -5 -6 6 -18 9 -25 6 -8 -3 -14 1 -14 8 0 9 -3 10 -8 4 -4 -6
-16 -11 -27 -11 -11 0 -23 5 -27 11 -5 6 -8 6 -8 0 0 -5 -11 -11 -25 -11 -14
-1 -25 2 -25 7 0 5 -5 9 -11 9 -5 0 -8 -4 -5 -8 2 -4 -4 -8 -15 -8 -10 0 -19
4 -19 8 0 4 -7 5 -15 2 -8 -4 -12 -10 -9 -15 3 -5 -2 -6 -10 -3 -9 3 -16 9
-16 13 0 9 -54 6 -69 -4 -6 -3 -11 -1 -11 6 0 8 -4 8 -15 -1 -12 -10 -15 -10
-15 0 0 10 -3 10 -15 0 -12 -10 -15 -10 -15 0 0 9 -4 9 -17 -1 -14 -12 -15
-12 -9 -1 7 11 4 12 -12 3 -14 -7 -23 -8 -27 -1 -4 7 -13 7 -26 0 -14 -8 -19
-7 -19 1 0 8 -4 8 -15 -1 -12 -10 -15 -10 -15 1 0 11 -2 11 -10 -1 -5 -8 -10
-10 -10 -4 0 6 -7 11 -15 11 -8 0 -12 -4 -9 -9 7 -11 -10 -10 -22 2 -5 5 -15
5 -22 1z m-177 -640 c3 -5 2 -12 -3 -15 -5 -3 -9 1 -9 9 0 17 3 19 12 6z
m3155 -51 c-11 -7 -9 -9 8 -7 15 1 21 6 17 16 -4 10 1 9 16 -5 12 -10 19 -14
16 -7 -4 6 -3 14 3 18 5 3 10 1 10 -6 0 -9 3 -9 14 0 11 9 16 9 22 0 5 -8 3
-9 -6 -4 -9 6 -11 4 -5 -4 5 -9 10 -10 18 -2 7 7 16 7 30 0 14 -8 18 -8 13 0
-4 6 0 11 9 11 8 0 18 -7 21 -15 4 -10 10 -12 18 -6 13 10 39 -12 28 -25 -4
-4 0 -5 9 -2 13 5 15 1 11 -19 -4 -20 -2 -24 8 -18 10 6 11 4 4 -6 -13 -21
-13 -142 0 -158 8 -11 8 -13 -1 -8 -8 5 -11 -3 -9 -25 2 -18 -1 -42 -7 -53
-10 -19 -9 -19 8 -5 14 11 17 11 11 1 -5 -7 -10 -39 -11 -71 -1 -32 -5 -63 -9
-69 -5 -7 -1 -8 11 -4 15 5 16 4 7 -8 -13 -16 -17 -82 -5 -75 4 3 8 -2 8 -10
0 -8 -5 -13 -12 -11 -6 3 -11 -3 -11 -13 0 -10 4 -16 8 -14 4 3 8 -2 8 -11 0
-9 -4 -14 -9 -10 -5 3 -13 1 -16 -5 -4 -6 -1 -9 6 -8 6 2 14 -3 17 -11 3 -10
0 -11 -9 -5 -9 5 -7 -2 5 -20 10 -16 14 -26 8 -22 -5 3 -12 -5 -14 -19 -3 -13
-2 -22 3 -19 4 2 5 -12 2 -32 -5 -30 -3 -36 8 -30 8 4 5 0 -5 -8 -11 -9 -14
-16 -8 -16 7 0 12 -5 12 -11 0 -5 -6 -7 -12 -3 -7 4 -10 4 -6 -1 4 -4 2 -15
-5 -24 -11 -14 -10 -14 5 -2 17 12 17 11 12 -18 -4 -20 -2 -37 7 -47 12 -15
11 -16 -11 -10 -17 5 -21 4 -11 -2 8 -6 10 -15 6 -22 -5 -9 -4 -11 3 -6 7 4
12 1 12 -9 0 -10 -5 -14 -12 -9 -10 6 -10 4 0 -7 14 -15 16 -33 3 -24 -5 3
-13 0 -17 -6 -4 -8 -3 -9 4 -5 7 4 12 4 13 -1 0 -4 1 -25 3 -45 2 -21 -1 -35
-5 -32 -4 2 -11 0 -14 -6 -4 -6 -1 -9 6 -8 6 2 14 -3 17 -11 3 -9 0 -11 -8 -6
-10 6 -10 3 -2 -11 7 -13 7 -25 0 -37 -7 -14 -7 -17 1 -13 7 4 11 -1 11 -13 0
-12 -5 -21 -11 -21 -5 0 -7 5 -3 12 5 7 3 8 -6 3 -10 -6 -10 -11 3 -20 20 -14
22 -35 5 -36 -10 0 -10 -2 0 -6 6 -2 12 -11 12 -19 0 -8 -6 -14 -12 -15 -9 0
-9 -2 1 -6 11 -5 11 -7 0 -14 -11 -7 -10 -9 5 -9 16 0 16 -2 -5 -20 l-24 -19
25 -1 c23 -1 23 -2 5 -10 -11 -5 -14 -9 -7 -9 17 -1 15 -22 -5 -36 -13 -9 -13
-14 -3 -20 9 -5 11 -4 6 3 -4 7 -2 12 3 12 6 0 11 -7 11 -15 0 -8 -6 -15 -12
-15 -8 0 -9 -3 -3 -8 15 -10 16 -74 1 -65 -7 3 -6 1 2 -8 15 -16 16 -33 1 -23
-8 4 -8 1 -2 -12 7 -17 9 -40 4 -92 0 -7 -6 -10 -11 -7 -6 4 -10 3 -9 -2 1 -4
1 -16 0 -27 -1 -15 -4 -16 -15 -7 -11 10 -17 8 -25 -6 -8 -14 -10 -15 -11 -3
0 13 -1 13 -10 0 -8 -13 -10 -13 -10 -1 0 12 -3 12 -12 3 -8 -8 -15 -9 -25 -1
-10 9 -13 8 -13 -2 0 -8 -6 -6 -16 7 -8 10 -13 14 -10 8 8 -15 -21 -26 -30
-12 -5 7 -2 8 6 3 9 -6 11 -4 6 4 -6 9 -13 8 -29 -6 -11 -10 -17 -12 -13 -5 4
6 3 12 -1 12 -5 0 -15 -6 -22 -12 -11 -11 -12 -10 -6 1 6 10 2 11 -15 6 -17
-6 -21 -4 -14 6 6 11 5 12 -7 2 -11 -9 -18 -8 -33 3 -10 7 -23 11 -28 8 -5 -3
-7 6 -4 20 3 14 1 28 -4 31 -5 3 -6 13 -3 22 4 9 2 14 -3 10 -5 -3 -10 3 -10
13 0 15 3 17 15 7 12 -10 13 -9 6 2 -5 8 -7 49 -6 90 7 238 5 671 -3 671 -6 0
-5 5 1 11 8 8 8 20 3 35 -6 13 -6 24 -1 24 5 0 5 16 1 35 -4 19 -4 35 1 35 5
0 4 11 -1 25 -5 14 -6 25 -2 25 4 0 7 11 7 25 0 14 -4 25 -10 25 -5 0 -4 5 2
11 8 8 8 20 3 35 -5 13 -6 24 -1 24 13 0 7 44 -9 58 -8 8 -10 11 -4 8 7 -3 12
4 12 19 0 15 -5 22 -12 19 -6 -3 -2 2 8 10 20 16 20 16 0 17 -10 0 -13 3 -6 6
6 2 12 14 12 24 0 11 -4 18 -9 15 -10 -7 -9 20 1 30 10 10 -3 35 -15 27 -6 -4
-7 -1 -3 6 5 7 15 10 25 7 9 -4 5 3 -9 14 -14 11 -18 18 -9 15 13 -5 16 0 15
25 0 22 -5 29 -16 25 -9 -3 -7 1 4 10 12 9 15 15 7 15 -11 0 -11 3 0 17 10 11
10 14 2 9 -7 -4 -13 -3 -13 3 0 5 6 12 13 15 10 5 10 7 0 12 -7 3 -13 10 -13
15 0 6 6 7 13 3 9 -6 9 -4 -1 8 -9 11 -10 18 -2 23 6 3 8 11 5 16 -4 5 -2 9 4
9 6 0 8 6 6 13 -3 6 4 18 15 25 16 10 20 10 20 0 0 -8 5 -6 10 4 6 9 19 15 30
13 11 -2 22 1 26 6 3 6 9 8 12 4 4 -3 0 -10 -8 -15z m-2175 -70 c-7 -11 23 -9
43 4 7 4 16 5 19 2 4 -3 0 -6 -8 -7 -8 -1 -3 -4 11 -8 31 -9 52 -3 43 13 -4 6
1 5 10 -3 9 -7 24 -10 33 -7 11 4 15 2 11 -8 -6 -15 9 -16 32 -2 10 6 12 5 7
-2 -5 -8 2 -12 18 -12 14 0 26 -5 26 -12 0 -6 3 -8 7 -5 3 4 15 -1 26 -10 12
-11 17 -12 12 -4 -5 10 -4 12 3 7 7 -4 12 -14 12 -22 0 -8 7 -14 16 -14 8 0
13 -4 10 -9 -3 -5 1 -12 10 -15 8 -3 12 -2 9 3 -3 5 -2 12 3 15 4 2 9 -4 9
-15 2 -27 22 -51 36 -42 6 3 7 1 3 -5 -4 -8 0 -12 11 -12 15 0 16 -2 3 -10
-13 -8 -12 -10 3 -10 9 0 17 -4 17 -10 0 -5 -8 -7 -17 -3 -13 4 -12 1 5 -14
12 -11 23 -32 24 -47 2 -21 6 -25 22 -20 19 6 19 6 2 -12 -16 -16 -17 -19 -2
-29 12 -9 13 -14 3 -25 -10 -10 -9 -11 2 -5 11 6 13 3 9 -13 -4 -13 0 -23 9
-26 8 -3 11 -11 7 -17 -10 -17 -13 -70 -3 -64 4 3 11 0 15 -6 4 -8 3 -9 -4 -5
-7 4 -23 -5 -37 -20 -22 -23 -25 -24 -31 -9 -5 13 -9 14 -15 3 -7 -11 -11 -11
-18 1 -13 20 -60 21 -53 1 4 -11 -1 -10 -17 4 -17 16 -21 17 -16 4 5 -13 2
-15 -16 -11 -17 5 -20 3 -14 -7 5 -9 4 -11 -4 -6 -6 4 -9 11 -7 15 3 4 -1 8
-9 8 -8 0 -12 -4 -9 -9 12 -20 -16 -6 -34 17 -13 17 -22 21 -24 13 -4 -10 -9
-8 -21 4 -19 19 -22 38 -6 38 5 0 7 5 4 10 -4 6 -11 7 -17 4 -6 -4 -8 1 -3 16
5 17 4 20 -5 15 -10 -6 -12 -1 -8 19 4 18 1 26 -8 26 -8 0 -14 5 -14 11 0 5 6
7 13 3 7 -4 9 -3 4 2 -5 5 -14 9 -20 9 -7 0 -12 6 -12 14 0 8 -9 15 -20 17
-11 2 -21 8 -23 13 -2 6 -8 11 -13 11 -6 0 -7 -6 -3 -12 6 -10 4 -10 -7 -2
-18 13 -45 12 -42 -2 1 -6 -4 -11 -12 -11 -8 0 -12 4 -9 9 3 4 1 8 -5 8 -5 0
-12 -9 -16 -20 -3 -11 -9 -19 -13 -19 -22 4 -32 -5 -42 -36 -6 -19 -15 -33
-19 -30 -5 2 -8 -5 -7 -18 1 -15 -4 -21 -14 -19 -12 3 -12 1 -3 -9 10 -10 9
-15 -5 -26 -9 -8 -11 -12 -4 -8 15 8 16 -11 1 -21 -8 -4 -7 -9 2 -15 11 -7 10
-9 -4 -9 -10 0 -15 -5 -12 -10 4 -6 1 -18 -7 -27 -8 -11 -8 -14 -1 -10 8 5 11
0 10 -13 -1 -11 -4 -20 -7 -20 -4 0 -7 -7 -7 -15 0 -8 4 -12 9 -9 10 6 10 1 2
-20 -3 -9 -10 -14 -14 -11 -10 6 0 -36 13 -52 5 -8 6 -13 0 -13 -5 0 -15 6
-23 13 -8 6 -6 2 4 -10 18 -21 18 -23 2 -23 -9 0 -14 -5 -11 -10 4 -6 10 -8
15 -5 5 3 12 0 16 -6 5 -8 3 -9 -6 -4 -10 6 -12 0 -8 -24 3 -18 0 -31 -6 -31
-6 0 -3 -7 6 -16 15 -15 15 -19 1 -41 -14 -21 -14 -23 1 -17 12 5 15 2 10 -10
-3 -9 -9 -14 -14 -11 -4 2 -5 -7 -2 -20 2 -15 9 -22 16 -18 6 4 5 -1 -3 -10
-7 -9 -9 -17 -3 -17 5 0 8 -10 4 -22 -4 -16 -2 -19 9 -14 8 4 5 0 -5 -8 -13
-10 -15 -16 -7 -16 11 0 11 -3 0 -17 -12 -14 -12 -16 0 -8 11 6 13 1 9 -23 -4
-26 -2 -29 9 -20 11 9 13 8 11 -3 -2 -8 -10 -17 -18 -21 -12 -5 -11 -7 4 -7
12 -1 16 -6 13 -16 -4 -8 -1 -17 5 -21 7 -4 6 -9 -3 -15 -10 -6 -10 -9 -2 -9
7 0 10 -6 7 -14 -3 -8 3 -24 13 -35 10 -12 19 -26 19 -31 1 -6 2 -15 3 -21 0
-5 5 -8 10 -4 6 3 8 -3 6 -14 -2 -11 3 -22 11 -25 10 -4 13 -1 9 7 -4 6 0 3 9
-7 8 -10 12 -24 9 -30 -4 -6 1 -5 10 3 13 10 17 10 17 1 0 -9 4 -9 17 1 9 8
14 9 10 3 -4 -7 3 -14 18 -16 20 -4 23 -2 15 8 -9 10 -6 11 11 7 17 -5 20 -3
14 8 -7 11 -5 11 10 -1 11 -9 16 -10 11 -2 -4 7 -1 15 8 18 9 3 13 11 9 17 -4
6 0 8 11 4 10 -4 15 -3 11 3 -3 6 0 10 7 11 10 0 10 2 1 6 -10 3 -9 8 2 20 13
12 13 18 3 31 -11 13 -11 14 0 8 10 -6 13 -2 10 17 -2 15 5 32 18 43 11 11 13
15 4 9 -13 -9 -13 -8 -1 8 8 10 30 25 49 33 41 17 42 17 42 3 0 -5 -6 -7 -12
-3 -7 4 -10 3 -5 -1 10 -12 47 -14 40 -2 -3 5 0 7 8 5 8 -3 23 -1 34 5 19 10
19 9 5 -9 -15 -18 -14 -18 12 -1 34 21 38 21 38 0 0 -15 2 -16 10 -3 5 8 18
16 29 16 12 1 18 -3 14 -9 -4 -6 4 -8 21 -5 14 3 26 1 26 -4 0 -5 7 -16 15
-25 10 -9 13 -23 9 -35 -5 -16 -3 -19 7 -12 11 6 12 5 3 -7 -6 -8 -10 -22 -9
-31 2 -10 -1 -20 -6 -24 -5 -3 -6 -10 -3 -16 5 -7 1 -9 -9 -5 -12 4 -15 1 -12
-16 3 -11 -3 -29 -12 -39 -16 -18 -16 -18 2 -12 13 5 16 4 11 -4 -4 -7 -13
-12 -21 -12 -8 0 -17 -5 -21 -12 -4 -6 -3 -8 4 -4 6 3 13 2 17 -4 3 -5 1 -10
-6 -10 -7 0 -9 -3 -6 -7 4 -3 1 -13 -7 -22 -8 -9 -16 -20 -18 -26 -2 -5 -9 -9
-16 -9 -9 2 -10 -2 -2 -11 9 -10 6 -16 -9 -24 -11 -6 -28 -11 -38 -12 -16 0
-16 -1 2 -9 17 -7 17 -9 3 -9 -10 -1 -18 -7 -18 -15 0 -9 -10 -13 -30 -11 -16
1 -27 -1 -24 -6 3 -5 10 -7 15 -4 5 4 9 1 9 -5 0 -6 5 -8 12 -4 7 4 8 3 4 -5
-4 -6 -12 -9 -17 -5 -6 3 -19 -3 -30 -15 -11 -12 -25 -21 -32 -21 -8 0 -7 4 3
11 13 9 13 10 0 6 -8 -2 -14 -11 -14 -20 1 -9 -2 -14 -8 -11 -5 3 -16 0 -25
-8 -12 -9 -15 -9 -9 -1 5 9 2 11 -8 7 -9 -3 -13 -11 -10 -16 4 -6 -4 -5 -16 2
-21 11 -22 10 -16 -6 6 -15 5 -17 -5 -6 -14 13 -33 17 -25 4 3 -5 -1 -9 -9 -9
-8 0 -12 3 -10 6 2 4 -10 7 -26 7 -29 2 -39 -10 -16 -19 9 -4 9 -6 -1 -6 -7
-1 -15 6 -18 14 -4 8 -10 12 -15 9 -5 -3 -7 -9 -5 -13 3 -4 -1 -8 -8 -8 -8 0
-12 6 -9 14 7 18 -7 16 -22 -3 -10 -15 -13 -15 -28 1 -13 12 -17 13 -18 3 0
-10 -2 -10 -6 0 -2 6 -11 12 -18 12 -7 0 -16 -6 -18 -12 -3 -7 -6 -4 -6 7 -1
17 -3 17 -11 5 -7 -12 -10 -12 -10 -1 0 8 -6 11 -16 7 -10 -4 -23 2 -33 16
-14 16 -20 18 -26 8 -6 -9 -4 -11 5 -5 9 6 11 4 5 -5 -6 -9 -4 -11 5 -5 9 5
11 4 6 -4 -6 -8 -12 -9 -20 -2 -7 6 -16 7 -20 3 -4 -4 -6 0 -4 8 2 9 -4 15
-14 15 -9 0 -20 4 -25 9 -5 5 -2 6 6 1 9 -5 12 -4 7 3 -4 7 -14 12 -22 12 -8
0 -12 5 -9 10 4 6 3 10 -2 9 -25 -4 -43 2 -37 13 5 8 2 9 -12 4 -10 -4 -15 -4
-11 0 4 4 1 14 -6 22 -10 13 -9 14 2 7 10 -5 12 -4 7 3 -4 7 -14 12 -22 12 -8
0 -13 4 -9 9 3 5 -4 12 -15 16 -11 4 -18 10 -15 15 8 12 -6 41 -16 34 -5 -3
-9 4 -9 16 0 12 -4 19 -9 16 -5 -4 -7 3 -4 14 3 12 0 20 -6 20 -7 0 -9 5 -6
10 3 6 0 10 -7 10 -9 0 -9 3 2 10 12 8 12 10 -5 10 -17 0 -17 2 -5 10 12 8 12
10 1 10 -8 0 -11 7 -8 20 3 11 0 20 -6 20 -7 0 -5 5 3 10 12 8 12 10 1 10 -8
0 -11 7 -8 20 3 11 0 23 -5 27 -6 3 -8 1 -4 -5 3 -6 2 -13 -3 -17 -10 -5 -5
40 5 57 3 4 0 8 -7 8 -9 0 -9 3 0 14 8 10 9 16 1 21 -6 4 -10 12 -9 18 4 32
-2 58 -12 52 -6 -4 -5 3 3 14 11 18 11 23 -2 31 -14 9 -8 14 15 11 6 0 3 4 -6
11 -13 9 -14 16 -5 40 8 23 8 31 -3 37 -9 6 -10 11 -2 15 6 4 11 13 11 19 0 7
-4 6 -10 -3 -5 -8 -10 -10 -10 -5 0 6 5 16 12 23 9 9 9 12 -1 12 -11 0 -11 3
-1 15 8 10 9 15 2 15 -6 0 -9 7 -6 15 4 8 10 13 14 10 5 -3 6 4 3 15 -3 11
-10 17 -17 13 -6 -3 -6 0 2 8 15 16 16 33 1 23 -6 -3 -3 5 6 20 17 25 16 26
-1 27 -16 1 -16 2 -3 6 12 3 15 11 11 25 -4 16 -2 19 9 13 11 -7 12 -6 2 6
-10 12 -10 18 0 29 10 10 9 11 -2 5 -10 -6 -12 -4 -5 6 13 21 16 51 4 44 -6
-3 -7 1 -4 9 3 9 10 13 15 10 5 -3 4 7 -1 21 -5 14 -6 24 -1 21 5 -3 12 1 15
10 4 9 2 13 -5 8 -8 -5 -8 -1 0 14 6 10 8 29 6 41 -2 12 0 19 6 16 5 -4 9 -4
9 -1 0 2 3 13 6 23 5 15 4 15 -5 3 -7 -9 -11 -11 -11 -3 0 7 7 16 16 21 11 6
15 17 11 31 -3 13 1 24 11 31 10 5 13 10 8 10 -6 0 -1 7 10 16 10 8 13 13 7 9
-21 -10 -15 5 13 30 15 14 21 25 15 25 -8 0 -7 5 3 16 9 8 16 20 16 25 0 5 5
9 11 9 5 0 7 -5 3 -12 -5 -7 -3 -8 5 -3 7 4 11 15 8 25 -3 13 0 17 9 13 9 -3
14 1 14 12 0 11 5 15 16 11 8 -3 12 -2 9 3 -3 5 4 16 15 24 11 7 17 17 12 22
-4 5 -2 5 4 2 12 -7 69 17 79 33 3 5 12 7 19 4 8 -3 17 0 21 6 5 8 10 8 20 0
10 -8 15 -8 20 0 5 8 11 8 21 -1 12 -10 13 -9 8 5 -7 19 -4 19 31 6 14 -5 24
-6 21 -1 -4 5 0 12 6 14 19 8 20 8 13 -3z m818 -87 c9 0 17 5 17 11 0 6 4 4
10 -4 5 -8 12 -11 16 -7 4 4 14 1 22 -6 11 -8 14 -8 9 0 -11 18 16 21 43 4 13
-9 21 -11 17 -5 -4 7 0 15 9 18 8 3 13 2 10 -3 -3 -5 1 -12 10 -15 9 -3 12 -2
9 5 -4 6 2 9 17 7 34 -5 50 -18 43 -35 -4 -13 -3 -14 10 -3 13 11 14 10 9 -5
-4 -10 -1 -21 7 -26 8 -5 9 -9 4 -9 -6 0 -11 -9 -12 -20 -1 -11 2 -18 7 -15 6
3 7 -1 4 -9 -3 -9 -11 -13 -18 -9 -8 5 -8 3 0 -8 6 -8 10 -32 10 -54 -1 -22 2
-51 7 -64 7 -22 6 -23 -9 -10 -16 13 -16 12 0 -18 9 -18 19 -33 22 -33 3 0 3
4 0 9 -3 5 19 7 49 5 38 -2 55 1 55 9 0 8 4 7 9 -3 6 -8 7 -18 5 -22 -3 -5 -2
-8 3 -7 18 4 41 -13 36 -27 -3 -8 0 -14 7 -14 10 0 10 -3 1 -14 -8 -10 -9 -16
-1 -21 6 -3 7 -12 3 -18 -12 -19 -13 -40 -2 -53 7 -8 6 -14 -1 -19 -5 -3 -10
-13 -10 -21 0 -8 5 -12 11 -9 6 4 5 -2 -3 -14 -7 -12 -19 -19 -27 -16 -11 4
-11 3 -2 -9 11 -13 9 -15 -8 -11 -12 2 -21 -1 -21 -8 0 -7 -4 -6 -10 3 -9 13
-10 13 -10 0 0 -12 -2 -12 -9 -1 -6 10 -10 10 -16 1 -5 -8 -10 -6 -19 6 -11
15 -14 15 -28 0 -12 -12 -18 -13 -21 -3 -3 7 -6 4 -6 -6 -1 -10 -5 -16 -10
-13 -5 4 -7 -3 -4 -14 3 -11 -1 -28 -8 -37 -10 -12 -10 -14 -1 -9 6 4 12 3 12
-1 0 -5 -6 -15 -12 -22 -10 -11 -10 -13 0 -7 14 8 16 -3 3 -24 -6 -8 -7 -19
-3 -25 10 -15 10 -47 0 -67 -5 -11 -4 -25 4 -38 11 -17 10 -22 -2 -30 -8 -5
-10 -10 -4 -10 14 0 13 -60 -1 -60 -5 0 -4 -4 3 -8 13 -9 12 -38 -2 -61 -6
-10 -5 -12 2 -7 7 4 12 2 12 -3 0 -6 -6 -11 -12 -12 -10 0 -10 -2 0 -6 9 -4
10 -8 2 -18 -8 -9 -6 -17 5 -29 15 -15 12 -21 -9 -17 -5 1 -3 -5 4 -14 12 -14
11 -18 -1 -26 -10 -6 -10 -9 -1 -9 6 0 12 -9 12 -20 0 -11 -6 -20 -12 -21 -7
-1 -2 -5 12 -9 19 -6 20 -8 6 -9 -15 -1 -16 -4 -7 -15 6 -8 10 -20 9 -27 -2
-8 2 -13 9 -12 8 2 10 -4 6 -15 -6 -15 -5 -16 12 -2 10 8 16 10 12 4 -4 -7 0
-14 7 -17 8 -3 17 -1 20 6 2 7 5 4 5 -6 1 -10 6 -15 11 -12 6 4 8 11 5 16 -3
5 1 6 9 3 9 -3 16 -11 16 -18 0 -6 5 -4 10 4 9 13 10 13 11 0 1 -8 1 -19 0
-24 -1 -5 6 -6 15 -2 13 5 15 2 11 -16 -4 -12 -2 -27 2 -32 14 -17 20 -106 7
-99 -8 5 -8 3 0 -8 13 -16 15 -49 2 -49 -4 0 -8 -7 -8 -15 0 -9 -6 -12 -17 -8
-10 4 -14 2 -10 -4 4 -6 -3 -10 -16 -9 -12 1 -28 -5 -35 -14 -8 -8 -11 -9 -7
-2 8 15 -27 11 -47 -6 -12 -9 -15 -9 -15 3 0 8 5 11 10 8 6 -3 7 -1 3 6 -6 9
-11 9 -22 0 -7 -6 -11 -16 -7 -22 3 -6 1 -7 -6 -3 -6 4 -9 11 -7 15 6 10 -35
8 -51 -2 -6 -4 -15 -3 -18 3 -5 8 -11 8 -20 0 -10 -8 -15 -8 -20 1 -6 8 -10 7
-16 -2 -5 -9 -9 -10 -9 -3 0 7 -7 15 -16 18 -8 3 -13 2 -10 -2 3 -5 -1 -9 -9
-9 -8 0 -12 4 -9 8 2 4 -1 11 -7 15 -6 3 -15 0 -20 -7 -7 -11 -9 -9 -10 6 -1
11 -1 23 0 27 0 4 -7 4 -16 1 -11 -4 -14 -3 -9 5 4 7 1 12 -9 12 -9 0 -14 3
-12 8 7 10 -19 32 -29 24 -5 -4 -2 1 5 11 12 15 11 17 -3 17 -10 0 -14 5 -11
10 3 6 0 10 -7 10 -9 0 -9 3 2 10 12 8 12 10 1 10 -11 0 -11 3 0 17 8 9 9 14
3 10 -7 -4 -15 0 -18 9 -3 8 -2 12 4 9 6 -3 10 -1 10 4 0 6 -6 11 -12 12 -10
0 -10 2 0 6 13 5 17 25 5 20 -5 -1 -8 3 -8 8 0 6 3 9 8 8 4 -2 7 2 7 7 0 6 -6
10 -12 10 -9 0 -8 4 2 10 12 8 12 10 1 10 -11 0 -9 5 5 22 10 12 14 18 8 15
-7 -4 -18 1 -25 10 -8 9 -9 14 -3 10 7 -4 14 0 18 8 3 8 1 17 -4 20 -5 3 -6
15 0 29 4 12 5 29 0 36 -4 7 -4 26 0 41 6 18 5 29 -1 29 -6 0 -7 9 -4 20 4 12
1 28 -7 38 -12 15 -11 16 5 3 16 -13 17 -12 8 13 -9 21 -8 26 5 26 8 0 12 5 9
10 -4 6 -10 8 -15 5 -5 -3 -12 0 -16 6 -5 8 -3 9 6 4 10 -6 12 -3 8 13 -5 16
-2 22 10 22 13 0 12 3 -4 15 -14 10 -15 14 -5 15 11 0 10 4 -5 16 -12 10 -13
14 -4 11 12 -4 15 6 15 48 0 29 -3 51 -7 49 -4 -2 -9 0 -12 5 -3 5 1 12 10 15
15 6 15 9 -2 28 -11 12 -14 18 -7 15 8 -5 11 0 10 13 -1 11 -5 20 -10 20 -4 0
-5 5 -2 10 4 6 12 7 18 4 7 -4 1 5 -13 20 -21 24 -22 26 -5 20 11 -4 17 -4 13
0 -3 4 -21 10 -38 12 -25 4 -31 2 -25 -8 3 -7 -1 -4 -9 6 -9 11 -16 15 -16 10
0 -6 -7 -11 -15 -11 -8 0 -11 5 -8 10 4 6 0 8 -10 4 -16 -6 -22 4 -18 27 1 5
-6 3 -15 -5 -15 -12 -17 -12 -9 0 4 8 8 47 7 88 -1 55 2 72 11 67 9 -5 9 -3 0
7 -7 7 -13 22 -13 34 0 16 2 17 10 5 8 -13 10 -12 10 4 0 13 5 17 20 13 11 -3
18 -2 15 3 -3 4 4 10 15 13 11 3 18 2 15 -3 -3 -4 2 -10 10 -13 10 -4 12 -1 8
11 -5 13 -3 14 7 5 10 -9 17 -7 34 8 18 17 19 21 6 29 -8 5 -10 10 -5 10 14 0
17 41 4 56 -7 9 -5 15 8 23 17 10 17 10 0 11 -14 0 -16 4 -7 19 7 14 7 22 0
26 -8 5 -8 11 -1 19 7 9 7 16 -1 24 -8 8 -9 12 -1 12 6 0 13 7 16 14 4 9 1 14
-6 12 -7 -1 -9 -1 -4 1 4 3 7 12 7 21 0 15 2 15 10 2 9 -14 14 -7 11 13 -1 5
3 6 9 2 5 -3 10 0 10 7 0 9 3 9 8 2 4 -6 15 -11 25 -11z m1070 -276 c11 10 58
13 52 2 -4 -5 4 -9 17 -9 18 0 20 -2 8 -10 -12 -8 -11 -10 8 -10 12 0 22 -5
22 -11 0 -5 -5 -7 -11 -3 -6 3 -3 -5 6 -20 10 -14 13 -26 7 -26 -6 0 -9 -10
-7 -22 3 -12 0 -27 -6 -34 -7 -8 -6 -14 2 -20 8 -5 9 -3 4 6 -5 9 -4 11 4 6 8
-5 9 -12 2 -19 -12 -16 -12 -29 2 -46 8 -10 9 -13 1 -8 -7 4 -11 -2 -11 -18 0
-16 4 -22 11 -18 8 5 8 3 0 -8 -18 -24 -24 -48 -11 -45 7 1 9 1 4 -1 -4 -3 -5
-9 -2 -14 4 -5 -1 -6 -9 -3 -11 4 -16 0 -16 -10 0 -9 5 -16 12 -16 6 0 8 -3 5
-6 -4 -4 -13 -1 -22 6 -11 9 -15 9 -15 1 0 -7 -4 -9 -10 -6 -5 3 -10 -2 -10
-12 -1 -17 -1 -17 -11 0 -11 19 -29 23 -29 6 0 -5 5 -7 12 -3 7 5 8 3 3 -5 -5
-9 -10 -10 -18 -2 -7 7 -14 7 -24 0 -9 -9 -13 -8 -13 0 0 8 -6 6 -16 -4 -12
-12 -19 -13 -24 -5 -5 8 -9 7 -14 -5 -3 -9 -11 -15 -18 -13 -36 12 -102 -129
-87 -185 6 -21 5 -26 -4 -19 -9 8 -12 4 -12 -13 0 -13 3 -21 8 -18 4 2 7 -1 7
-6 0 -6 -5 -11 -11 -11 -5 0 -7 -5 -4 -10 4 -6 12 -7 18 -3 7 4 7 0 -1 -10 -8
-9 -10 -22 -6 -28 4 -8 3 -9 -4 -5 -7 4 -12 2 -12 -3 0 -6 6 -11 13 -11 8 0 7
-4 -3 -10 -13 -9 -13 -10 0 -10 13 0 13 -1 0 -10 -12 -8 -12 -10 -1 -10 11 0
11 -3 0 -17 -12 -14 -12 -15 -1 -9 11 7 12 4 3 -12 -8 -14 -8 -23 -1 -27 8 -5
7 -11 -1 -21 -6 -8 -8 -14 -4 -14 4 0 2 -7 -5 -15 -11 -13 -10 -14 2 -10 12 5
15 0 13 -19 -2 -14 -6 -29 -9 -35 -4 -5 -2 -13 4 -16 8 -5 7 -11 -1 -21 -9
-11 -9 -14 0 -14 9 0 9 -5 1 -20 -8 -14 -8 -20 0 -20 8 0 8 -6 0 -20 -6 -11
-7 -20 -2 -20 12 0 11 -32 -2 -49 -8 -11 -8 -13 0 -8 7 4 15 0 18 -9 3 -8 2
-12 -4 -9 -6 3 -10 1 -10 -4 0 -6 6 -11 13 -12 9 0 9 -2 0 -6 -10 -3 -10 -10
-2 -25 8 -16 7 -23 -8 -35 -16 -13 -16 -14 -1 -9 12 3 15 1 11 -9 -3 -8 -9
-13 -13 -10 -5 3 -10 0 -12 -6 -2 -6 -16 -11 -31 -11 -15 0 -25 -4 -22 -8 8
-12 -33 -4 -51 11 -10 8 -15 9 -11 3 4 -7 -6 -11 -28 -11 -22 0 -32 4 -28 11
5 8 3 8 -8 0 -8 -6 -26 -9 -42 -8 -19 2 -25 -1 -20 -9 4 -7 1 -7 -10 1 -9 8
-21 11 -27 7 -5 -3 -10 -2 -10 4 0 6 -7 7 -17 4 -10 -4 -14 -2 -10 4 10 15 -3
44 -15 37 -6 -4 -5 3 1 15 9 16 9 21 -1 22 -10 0 -10 2 0 6 6 2 9 10 5 16 -11
17 -13 38 -3 32 12 -8 19 32 7 44 -8 8 -8 11 0 11 13 0 12 32 -2 42 -6 5 -5 8
3 8 18 0 15 27 -5 40 -16 10 -15 11 5 6 18 -3 21 -2 12 9 -6 7 -9 34 -6 59 2
25 1 44 -4 41 -4 -2 -5 7 -2 20 2 15 9 22 16 18 6 -3 3 3 -7 14 -14 16 -15 22
-5 26 11 5 11 7 0 15 -11 7 -10 11 4 16 12 5 14 10 6 18 -6 6 -8 17 -5 26 4 9
2 13 -4 9 -6 -4 -8 3 -5 18 2 15 9 22 16 18 8 -5 8 -3 -1 8 -6 8 -11 42 -11
75 1 34 -2 66 -6 73 -5 7 -1 9 11 4 16 -6 16 -5 4 10 -8 11 -11 28 -7 48 3 16
2 28 -2 25 -5 -3 -9 1 -9 9 0 8 4 12 9 9 10 -6 10 -1 2 20 -3 9 -11 13 -17 9
-6 -3 -7 -1 -3 6 4 6 12 9 17 6 12 -8 11 2 -1 26 -7 13 -7 19 0 19 5 0 10 5
10 11 0 5 -4 8 -8 5 -4 -2 -6 11 -4 30 3 20 -2 41 -9 51 -8 9 -9 14 -2 10 17
-11 22 16 5 29 -13 9 -11 14 9 34 13 13 19 20 13 17 -17 -10 -39 19 -23 29 8
5 9 3 4 -6 -6 -9 -4 -11 5 -5 10 6 9 11 -5 22 -14 10 -15 13 -4 14 12 0 12 1
0 6 -10 4 -8 9 10 20 15 9 17 12 5 8 -15 -4 -17 -3 -8 8 7 8 9 17 5 21 -4 4 1
4 11 0 14 -5 17 -4 12 4 -9 15 -1 15 26 1 16 -9 19 -8 13 2 -6 9 -3 11 8 6 10
-4 17 -1 17 6 0 8 3 8 9 -2 5 -7 15 -11 22 -9 8 3 22 1 33 -4 13 -7 16 -7 12
1 -4 6 -4 11 1 12 4 0 16 2 26 4 9 2 15 -1 12 -5 -3 -5 9 -9 27 -8 40 0 65 -5
75 -17 4 -4 1 -5 -7 -1 -8 4 -5 -1 6 -11 12 -10 20 -26 19 -35 -2 -10 2 -18 8
-18 7 0 5 -5 -3 -10 -11 -7 -12 -10 -2 -10 8 0 16 9 19 20 3 11 10 17 16 13 7
-4 8 0 3 13 -4 10 -4 15 0 12 9 -10 33 15 26 27 -3 6 3 3 13 -5 10 -8 16 -10
12 -3 -6 10 19 26 45 28 3 0 10 4 15 9 5 5 2 6 -6 1 -10 -6 -12 -4 -7 4 5 7
14 10 22 7 7 -3 16 -1 20 5 4 7 10 6 18 0 7 -6 16 -8 19 -4z m-643 -37 c0 -5
-2 -10 -4 -10 -3 0 -8 5 -11 10 -3 6 -1 10 4 10 6 0 11 -4 11 -10z m-1021
-113 c0 -9 -2 -8 -6 1 -2 6 -10 9 -15 6 -7 -4 -8 -2 -4 5 9 13 26 5 25 -12z
m168 -9 c-3 -8 -6 -5 -6 6 -1 11 2 17 5 13 3 -3 4 -12 1 -19z m113 16 c0 -8
-19 -13 -24 -6 -3 5 1 9 9 9 8 0 15 -2 15 -3z"/>
<path d="M2166 6202 c-3 -5 1 -9 9 -9 8 0 12 4 9 9 -3 4 -7 8 -9 8 -2 0 -6 -4
-9 -8z"/>
<path d="M2173 5093 c9 -14 -19 -37 -33 -28 -5 3 -10 4 -10 1 0 -3 10 -11 23
-17 12 -6 19 -8 14 -4 -4 5 0 16 9 26 12 13 12 19 3 25 -7 4 -10 3 -6 -3z"/>
<path d="M2127 5019 c7 -7 15 -10 18 -7 3 3 -2 9 -12 12 -14 6 -15 5 -6 -5z"/>
<path d="M1581 4874 c0 -11 3 -14 6 -6 3 7 2 16 -1 19 -3 4 -6 -2 -5 -13z"/>
<path d="M1770 4886 c0 -2 7 -7 16 -10 8 -3 12 -2 9 4 -6 10 -25 14 -25 6z"/>
<path d="M1697 4859 c7 -7 15 -10 18 -7 3 3 -2 9 -12 12 -14 6 -15 5 -6 -5z"/>
<path d="M490 6999 c0 -5 -6 -7 -12 -3 -8 5 -8 1 2 -12 8 -10 11 -16 6 -12 -9
7 -66 -10 -65 -20 3 -17 -2 -32 -8 -31 -20 3 -34 -2 -28 -11 6 -9 -8 -14 -27
-11 -5 0 -8 -6 -8 -15 0 -8 -3 -13 -7 -11 -11 7 -33 -19 -25 -29 4 -5 -2 -2
-12 6 -13 10 -17 10 -12 3 7 -12 -5 -18 -28 -14 -5 1 -3 -6 5 -15 9 -12 9 -15
2 -10 -8 4 -13 2 -13 -4 0 -6 -4 -9 -9 -5 -6 3 -15 -3 -20 -14 -6 -11 -20 -22
-31 -26 -11 -3 -19 -9 -17 -13 3 -10 -46 -58 -56 -54 -4 1 -3 -6 2 -16 12 -23
3 -64 -13 -55 -6 4 -4 -2 4 -12 9 -11 10 -16 3 -11 -8 4 -13 2 -14 -6 -4 -45
-3 -108 2 -141 6 -33 5 -36 -9 -25 -13 11 -14 11 -8 -1 14 -22 25 -81 15 -81
-5 0 -9 5 -9 12 0 6 -3 9 -6 6 -3 -4 3 -19 13 -34 10 -16 13 -25 7 -21 -8 4
-11 -2 -10 -18 0 -14 6 -25 11 -25 6 0 3 -5 -5 -10 -13 -9 -13 -10 0 -11 10 0
8 -3 -5 -9 l-20 -9 20 0 c11 -1 16 -5 10 -9 -14 -10 -16 -45 -2 -54 8 -5 8 -8
-3 -8 -13 0 -13 -1 0 -10 10 -6 11 -10 3 -10 -19 0 -16 -27 4 -39 17 -10 17
-10 1 -11 -9 0 -20 -5 -24 -12 -4 -6 -3 -8 3 -5 6 4 13 -2 16 -13 3 -11 0 -20
-6 -20 -6 0 -2 -7 9 -15 16 -13 16 -14 1 -9 -15 6 -16 3 -7 -21 12 -33 12 -35
-1 -35 -5 0 -7 5 -3 12 5 7 3 8 -6 3 -10 -6 -7 -12 11 -27 16 -12 18 -16 6
-12 -15 6 -16 3 -7 -21 12 -33 12 -35 -1 -35 -5 0 -7 5 -3 12 5 7 3 8 -6 3
-10 -6 -8 -12 9 -27 18 -14 20 -18 7 -18 -18 0 -20 -8 -7 -29 6 -9 6 -22 1
-32 -5 -9 -6 -19 -3 -23 11 -11 12 -36 2 -36 -6 0 -7 -5 -4 -10 4 -6 11 -7 17
-4 7 4 8 2 4 -5 -4 -6 -12 -9 -17 -6 -5 4 -9 1 -9 -4 0 -6 6 -11 13 -11 9 0 8
-3 -2 -9 -11 -7 -11 -9 0 -14 10 -4 10 -6 2 -6 -19 -1 -16 -28 5 -40 11 -7 13
-10 3 -11 -9 0 -12 -8 -9 -25 3 -14 1 -25 -5 -25 -6 0 -2 -7 9 -15 16 -13 16
-14 1 -9 -15 6 -16 3 -7 -21 12 -33 12 -35 -1 -35 -5 0 -7 5 -3 12 5 7 3 8 -6
3 -10 -6 -7 -12 11 -27 18 -13 19 -16 5 -12 -16 6 -17 4 -7 -13 8 -17 7 -22
-5 -27 -13 -5 -12 -9 3 -33 10 -15 12 -24 6 -20 -7 5 -13 4 -13 -2 0 -5 8 -15
18 -20 16 -10 16 -10 0 -11 -10 0 -18 -5 -18 -11 0 -5 6 -7 12 -3 9 5 9 2 -1
-9 -11 -14 -11 -17 0 -18 8 0 5 -4 -6 -9 l-20 -9 20 0 c11 -1 16 -5 10 -9 -5
-4 -10 -26 -10 -50 0 -23 5 -42 10 -42 6 0 4 -4 -3 -9 -11 -6 -10 -12 5 -26
17 -17 17 -18 1 -12 -20 7 -22 3 -9 -22 6 -10 6 -23 1 -31 -5 -8 -4 -22 2 -33
7 -14 7 -17 -1 -13 -6 4 -11 2 -11 -3 0 -6 6 -11 13 -11 9 0 8 -3 -2 -9 -11
-7 -10 -11 5 -21 17 -10 17 -11 -4 -6 -19 4 -21 2 -11 -10 6 -8 9 -23 6 -34
-3 -11 -1 -23 5 -26 7 -4 6 -9 -2 -14 -9 -6 -9 -12 0 -30 8 -15 8 -20 1 -16
-6 4 -11 2 -11 -3 0 -6 6 -11 13 -11 9 0 9 -2 -1 -9 -17 -10 -15 -20 6 -46 16
-19 16 -19 -1 -6 -20 15 -23 2 -4 -18 6 -8 7 -11 1 -8 -12 7 -12 -102 0 -122
4 -6 3 -11 -2 -11 -5 0 -7 -21 -5 -46 3 -35 1 -44 -8 -39 -8 6 -10 4 -3 -6 4
-8 9 -20 11 -28 1 -8 8 -18 15 -23 10 -7 8 -8 -5 -4 -14 4 -16 1 -13 -19 3
-14 8 -30 12 -36 4 -8 3 -9 -4 -5 -8 5 -12 -1 -12 -14 0 -13 4 -19 12 -14 7 5
8 3 2 -7 -5 -8 -7 -22 -6 -31 2 -10 -3 -18 -10 -18 -9 0 -9 -3 2 -10 8 -5 11
-10 6 -10 -5 0 -3 -7 4 -15 9 -11 9 -15 1 -15 -7 0 -9 -9 -5 -26 6 -22 4 -25
-7 -19 -12 8 -12 6 0 -8 7 -9 10 -17 6 -17 -4 0 -2 -6 4 -14 9 -11 8 -15 -4
-20 -10 -4 -13 -11 -8 -18 9 -15 12 -46 13 -151 1 -27 -3 -36 -11 -32 -6 4 -3
-5 7 -21 12 -18 14 -25 5 -20 -9 6 -12 5 -9 -5 3 -8 12 -13 19 -11 11 2 11 -1
-1 -10 -18 -15 -22 -48 -7 -48 6 0 2 -7 -9 -15 -18 -14 -18 -14 6 -10 23 4 24
3 7 -10 -18 -13 -18 -13 0 -18 17 -4 17 -5 -1 -6 -16 -1 -17 -3 -5 -18 10 -11
10 -14 2 -9 -7 4 -13 2 -13 -3 0 -6 6 -11 13 -11 8 0 7 -4 -3 -10 -9 -6 -11
-10 -3 -10 7 0 10 -7 6 -16 -3 -9 0 -20 8 -25 12 -7 12 -9 -1 -9 -9 0 -15 -9
-15 -24 0 -18 3 -22 13 -14 17 15 15 3 -3 -16 -13 -13 -13 -16 1 -30 13 -14
14 -16 0 -16 -20 0 -29 -17 -15 -26 8 -4 9 -3 5 4 -4 7 -2 12 3 12 6 0 11 -7
11 -15 0 -8 -5 -15 -11 -15 -8 0 -8 -5 1 -15 9 -11 9 -15 1 -15 -7 0 -10 -4
-7 -8 11 -17 14 -62 5 -62 -6 0 -5 -9 2 -21 8 -15 8 -19 0 -15 -6 4 -11 0 -11
-9 0 -9 4 -14 8 -11 5 3 6 -8 4 -24 -2 -18 -9 -27 -15 -23 -6 4 -7 1 -1 -8 12
-20 14 -100 2 -93 -6 4 -3 -5 6 -18 9 -14 13 -28 9 -33 -5 -4 -2 -5 5 -1 7 4
10 11 7 16 -3 4 2 11 11 14 9 4 14 13 10 22 -3 8 -2 12 4 9 6 -3 10 -1 10 5 0
6 4 9 8 6 5 -3 8 8 7 23 -1 20 3 28 14 27 8 -1 17 8 19 19 8 51 13 65 22 60 6
-3 10 3 10 15 0 11 7 23 15 26 8 4 12 10 9 15 -7 13 31 60 42 51 5 -4 2 2 -6
12 -8 11 -10 17 -5 14 6 -3 19 6 30 21 15 21 16 23 2 12 -15 -12 -17 -12 -11
2 3 9 14 19 25 22 10 4 19 11 19 16 0 6 -4 8 -8 5 -5 -3 -9 1 -9 8 0 8 6 12
14 9 7 -3 13 2 13 11 0 9 4 16 9 16 6 0 8 9 6 20 -2 11 0 18 4 15 11 -6 41 38
41 60 0 8 5 15 11 15 6 0 9 9 6 20 -3 11 0 18 7 17 6 -1 10 4 8 11 -1 6 3 12
10 12 6 0 8 3 5 7 -4 3 2 16 12 27 19 20 21 24 21 47 0 5 5 7 12 3 6 -4 8 -3
4 4 -3 6 -2 13 4 17 6 4 8 11 5 16 -4 5 -1 9 5 9 6 0 8 5 5 10 -3 5 -1 10 5
10 7 0 10 6 7 13 -2 6 3 18 12 25 9 8 11 11 5 8 -6 -3 -11 1 -11 9 0 8 3 14 6
13 3 0 13 0 21 1 12 1 12 3 -2 11 -10 6 -15 19 -13 30 2 11 0 20 -6 20 -5 0
-9 7 -9 16 0 9 -5 12 -12 8 -7 -5 -8 -3 -3 6 5 8 1 18 -10 27 -14 9 -15 13 -4
13 12 1 11 3 -2 13 -17 14 -35 52 -19 42 12 -8 12 -8 1 33 -7 24 -7 31 2 25 7
-3 3 4 -8 17 -11 13 -15 20 -9 17 7 -4 14 3 16 17 4 19 1 23 -11 18 -13 -4
-14 -3 -5 9 14 19 16 61 2 53 -5 -4 -2 6 8 22 13 19 14 25 5 19 -11 -6 -13 -4
-8 7 3 9 0 21 -6 28 -8 9 -8 11 -1 7 7 -4 12 3 12 18 0 15 -5 22 -12 18 -6 -3
-6 0 2 8 6 7 12 24 12 38 0 21 -2 23 -10 11 -5 -8 -10 -11 -10 -7 0 4 7 19 16
33 16 23 16 24 -2 17 -16 -6 -17 -4 -7 8 13 16 12 36 -1 58 -7 10 -5 12 3 7 9
-6 11 5 8 47 -3 31 -9 62 -13 69 -6 11 -5 11 8 0 14 -12 16 -10 11 10 -3 13
-11 29 -17 37 -8 11 -8 13 1 7 10 -5 12 8 9 58 -3 47 -1 64 8 59 6 -3 2 4 -8
16 -16 17 -16 20 -4 16 9 -4 19 -1 23 5 3 6 1 9 -6 8 -16 -4 -19 24 -4 34 6 5
6 8 -2 8 -7 0 -13 5 -13 11 0 5 6 7 13 3 9 -5 9 -4 0 6 -10 11 -9 16 5 27 9 8
12 12 5 8 -7 -3 -17 5 -24 17 -11 20 -10 21 3 11 12 -11 14 -6 8 37 -6 44 -5
48 9 37 11 -8 10 -5 -2 9 -17 21 -17 22 0 40 17 17 17 17 1 11 -10 -3 -18 -2
-18 3 0 6 6 10 13 10 8 0 7 4 -3 10 -13 9 -13 10 0 11 10 0 8 3 -5 9 -18 8
-18 9 -2 9 14 1 16 5 8 19 -6 11 -6 24 -1 32 6 10 3 21 -7 33 -16 17 -16 17 0
11 15 -5 16 -3 7 20 -7 19 -6 26 3 26 7 0 4 7 -6 14 -16 12 -16 15 -3 18 14 3
14 6 2 30 -12 22 -12 26 0 21 10 -4 11 2 4 29 -13 43 -13 43 8 27 15 -12 16
-12 5 2 -7 9 -9 20 -5 24 4 5 1 5 -5 1 -7 -4 -13 -2 -13 3 0 6 6 11 13 11 9 0
8 3 -2 9 -11 7 -11 9 0 14 11 4 11 6 0 6 -11 1 -10 5 5 16 18 14 18 14 -3 10
-13 -2 -23 0 -23 6 0 5 6 9 13 9 9 0 11 16 7 65 -5 56 -3 65 10 60 9 -3 7 1
-4 10 -11 8 -14 15 -8 15 10 0 10 5 2 21 -9 17 -8 23 7 35 11 9 13 13 4 12 -7
-2 -16 3 -18 10 -3 7 3 12 13 12 16 0 16 1 -2 15 -14 11 -16 15 -4 15 12 0 10
4 -4 15 -17 13 -18 15 -3 15 23 0 22 20 0 21 -12 1 -10 4 7 9 14 4 20 8 14 9
-7 1 -15 8 -18 17 -3 8 -2 13 2 10 4 -2 8 4 8 15 0 10 -5 19 -10 19 -5 0 -1 6
10 14 10 8 16 18 11 22 -4 4 -7 2 -7 -4 0 -7 -4 -12 -8 -12 -4 0 -8 9 -8 20 0
11 4 20 8 20 4 0 5 7 2 15 -4 8 -11 12 -18 8 -6 -4 -5 0 2 9 8 9 13 25 12 35
-4 32 0 44 11 37 6 -3 4 4 -5 17 -10 16 -12 29 -6 39 6 10 3 21 -8 35 -9 11
-13 17 -8 13 5 -4 15 -3 22 3 11 9 10 15 -3 35 -8 13 -11 24 -5 24 6 0 8 9 5
20 -3 13 0 20 8 21 8 0 5 4 -6 9 -12 5 -14 9 -6 9 11 1 10 5 -5 16 -18 13 -18
14 6 9 14 -3 21 -2 15 3 -13 10 -13 23 -1 42 6 9 5 12 -1 8 -18 -11 -23 21 -7
38 14 13 14 15 -2 15 -17 0 -17 1 1 13 12 10 14 16 7 21 -16 10 -15 49 1 65 6
7 8 12 2 11 -24 -5 -27 1 -9 16 10 8 14 13 8 10 -7 -4 -13 6 -16 23 -3 22 -1
28 10 23 11 -4 10 1 -3 22 -10 15 -13 26 -7 24 5 -2 10 2 10 7 0 6 -4 9 -10 7
-5 -1 -7 2 -3 7 3 6 13 7 22 4 15 -6 16 -5 3 9 -8 9 -19 13 -25 10 -5 -3 -4 2
4 11 11 14 11 17 0 17 -12 0 -12 2 0 9 10 6 10 10 1 16 -6 4 -9 13 -6 21 3 8
1 14 -4 14 -6 0 -10 -5 -10 -11z m-369 -812 c-10 -9 -11 -8 -5 6 3 10 9 15 12
12 3 -3 0 -11 -7 -18z"/>
<path d="M4890 6988 c0 -10 -4 -18 -10 -18 -5 0 -10 -5 -10 -11 0 -5 6 -7 13
-3 8 5 8 2 -2 -9 -11 -14 -11 -17 0 -17 10 0 10 -3 1 -12 -17 -17 -15 -26 6
-31 15 -4 15 -5 -2 -6 -15 -1 -16 -4 -6 -16 10 -12 10 -15 0 -15 -9 0 -9 -4 1
-17 12 -15 12 -16 -1 -8 -13 7 -13 6 -2 -7 11 -14 10 -17 -5 -21 -17 -4 -17
-5 0 -6 19 -1 20 -30 2 -43 -6 -5 -4 -8 5 -8 13 0 13 -1 0 -10 -13 -9 -13 -10
0 -10 13 0 13 -1 0 -10 -12 -8 -12 -10 -1 -10 9 0 10 -4 4 -12 -11 -15 -11
-28 0 -45 5 -8 3 -13 -5 -13 -9 0 -9 -3 2 -10 11 -7 11 -10 2 -10 -9 0 -10 -5
-2 -19 6 -12 6 -22 1 -25 -10 -7 -9 -31 2 -42 4 -4 2 -13 -4 -21 -9 -10 -8
-13 2 -13 11 0 11 -2 -1 -10 -13 -9 -13 -10 0 -10 13 0 13 -1 0 -10 -10 -6
-11 -10 -2 -10 6 0 12 -5 12 -11 0 -5 -6 -7 -12 -3 -9 5 -9 2 1 -9 11 -14 11
-17 0 -17 -11 0 -11 -2 1 -10 13 -9 13 -10 0 -10 -13 0 -13 -1 0 -10 13 -9 13
-10 0 -10 -13 0 -13 -1 0 -10 13 -9 13 -10 0 -10 -9 0 -11 -3 -5 -8 12 -8 13
-41 2 -59 -5 -8 -4 -13 2 -13 6 0 11 -5 11 -11 0 -5 -4 -8 -8 -5 -5 3 -9 -1
-9 -9 0 -8 5 -15 10 -15 5 0 3 -8 -4 -17 -10 -11 -10 -14 -1 -9 15 9 16 -6 0
-22 -9 -9 -9 -12 3 -12 12 0 12 -2 -1 -10 -13 -9 -13 -10 0 -10 13 0 13 -1 0
-10 -10 -6 -11 -10 -2 -10 6 0 12 -5 12 -11 0 -5 -4 -8 -8 -5 -4 2 -8 -17 -7
-44 0 -26 4 -46 9 -42 5 3 5 -1 0 -9 -13 -22 -16 -51 -3 -43 8 5 8 1 0 -14
-14 -25 -14 -35 -2 -27 10 6 7 -27 -4 -44 -3 -5 0 -13 6 -17 8 -4 7 -9 -2 -15
-12 -7 -11 -9 0 -9 11 0 9 -4 -5 -15 -10 -8 -14 -15 -9 -14 22 3 27 -2 15 -16
-10 -12 -10 -15 1 -15 11 0 11 -2 -1 -10 -11 -7 -11 -10 -2 -10 7 0 10 -5 7
-10 -4 -6 -12 -8 -18 -4 -7 3 -3 -2 7 -10 13 -10 15 -16 7 -16 -11 0 -11 -3 0
-17 10 -11 10 -14 2 -9 -7 4 -13 3 -13 -3 0 -5 6 -12 13 -14 9 -4 9 -6 -1 -6
-8 -1 -10 -6 -5 -13 11 -19 11 -58 0 -58 -5 0 -5 -6 2 -13 8 -10 7 -17 -2 -26
-9 -9 -9 -14 3 -21 13 -9 13 -10 0 -10 -13 0 -13 -1 0 -10 12 -8 12 -10 -5
-10 -16 0 -17 -2 -6 -9 8 -5 15 -19 16 -30 1 -11 -2 -18 -7 -15 -4 3 -8 0 -8
-5 0 -6 6 -11 13 -11 9 0 8 -3 -2 -9 -9 -6 -10 -10 -2 -16 9 -5 9 -10 0 -21
-9 -11 -8 -14 2 -14 12 0 12 -2 0 -9 -11 -7 -11 -9 0 -14 12 -5 12 -6 0 -6
-11 -1 -11 -4 0 -18 12 -15 12 -16 -5 -10 -15 6 -17 5 -8 -6 7 -8 9 -17 5 -20
-3 -4 0 -7 7 -7 9 0 7 -5 -6 -15 -10 -8 -14 -15 -9 -14 23 3 27 -2 14 -17 -10
-13 -10 -17 2 -25 12 -7 12 -9 -1 -9 -13 0 -13 -1 0 -10 12 -8 12 -10 -5 -10
-16 0 -17 -2 -6 -9 8 -5 15 -19 16 -30 1 -11 -2 -18 -7 -15 -4 3 -8 1 -8 -5 0
-5 6 -12 13 -14 9 -4 9 -6 -1 -6 -8 -1 -10 -6 -6 -13 11 -17 12 -48 2 -42 -4
3 -8 1 -8 -5 0 -5 5 -13 10 -16 8 -5 7 -11 -1 -21 -8 -10 -8 -14 0 -14 13 0
10 -22 -4 -32 -6 -5 -4 -8 5 -8 13 0 13 -1 0 -10 -13 -9 -13 -10 0 -10 13 0
13 -1 0 -10 -10 -6 -11 -10 -2 -10 6 0 12 -5 12 -11 0 -5 -4 -8 -9 -5 -10 7
-9 -13 2 -31 4 -6 1 -14 -5 -16 -10 -4 -10 -6 0 -6 10 -1 10 -6 2 -21 -10 -19
-7 -24 15 -21 6 1 1 -6 -9 -14 -12 -9 -15 -15 -7 -15 11 0 11 -3 1 -15 -10
-12 -10 -15 0 -15 10 0 10 -3 0 -15 -10 -12 -10 -15 0 -15 9 0 9 -4 -1 -17
-10 -11 -10 -14 -1 -9 15 9 15 1 2 -24 -7 -13 -7 -21 0 -25 5 -3 10 -11 10
-16 0 -6 -3 -8 -8 -5 -4 2 -7 -13 -7 -34 0 -21 3 -36 7 -34 13 8 9 -11 -4 -24
-7 -7 -8 -12 -2 -12 6 0 11 -7 11 -15 0 -8 -5 -15 -11 -15 -6 0 -4 -5 4 -10
12 -8 13 -11 1 -19 -9 -6 -10 -11 -2 -15 8 -5 8 -13 1 -26 -7 -13 -7 -21 0
-25 6 -4 7 -12 3 -18 -11 -15 -10 -78 1 -96 6 -9 5 -12 -1 -8 -15 9 -23 -29
-10 -42 8 -8 7 -11 -2 -11 -7 0 -11 -6 -8 -14 3 -7 0 -19 -6 -26 -9 -10 -9
-11 3 -5 12 7 13 6 3 -7 -7 -8 -10 -18 -6 -21 3 -4 1 -7 -6 -7 -8 0 -11 -6 -7
-16 3 -8 2 -12 -4 -9 -6 3 -10 -2 -10 -12 0 -11 -5 -24 -12 -31 -9 -9 -9 -12
1 -12 11 0 11 -3 1 -15 -9 -10 -9 -15 -1 -15 6 0 11 -6 11 -14 0 -8 6 -21 13
-28 7 -7 12 -20 12 -28 0 -8 8 -23 19 -32 10 -10 16 -18 12 -18 -3 0 2 -17 13
-39 11 -21 17 -42 13 -46 -4 -5 -1 -5 6 -1 7 4 12 2 12 -5 0 -6 8 -18 18 -26
9 -8 11 -12 5 -8 -9 4 -11 1 -7 -9 3 -9 14 -16 23 -16 14 0 14 -2 1 -10 -10
-6 -11 -10 -3 -10 7 0 15 -11 19 -25 3 -14 10 -25 15 -25 5 0 9 -9 9 -20 0
-11 5 -20 10 -20 6 0 10 -9 10 -20 0 -10 8 -23 17 -29 10 -5 18 -15 19 -23 0
-7 2 -21 2 -31 1 -10 6 -15 12 -12 6 4 10 -5 10 -20 0 -14 7 -28 15 -31 9 -4
20 -15 26 -26 9 -16 8 -19 -3 -13 -7 3 -6 1 3 -7 9 -7 14 -19 11 -27 -3 -8 0
-11 6 -8 5 4 16 -1 23 -10 12 -14 12 -16 -1 -9 -12 6 -11 5 1 -6 9 -7 15 -23
14 -35 -1 -14 5 -23 18 -27 14 -3 18 -11 14 -25 -3 -15 3 -27 21 -42 15 -11
21 -18 15 -14 -7 3 -13 1 -13 -4 0 -6 5 -11 11 -11 5 0 8 -3 6 -7 -5 -9 13
-27 28 -30 6 -1 10 9 10 22 0 13 -3 21 -7 18 -5 -2 -8 1 -8 6 0 6 5 11 11 11
8 0 8 5 -1 15 -10 12 -10 15 1 15 10 0 10 3 1 12 -7 7 -8 17 -2 29 7 12 6 20
-1 25 -8 4 -7 9 2 15 8 5 9 9 3 9 -7 0 -10 13 -7 33 5 36 5 39 0 85 -2 18 1
32 7 32 7 0 8 3 1 8 -5 4 -10 21 -10 37 0 17 5 33 10 37 6 5 4 8 -5 8 -13 0
-13 1 0 10 8 5 10 10 5 10 -6 0 -11 9 -11 20 0 11 4 20 8 20 4 0 3 11 -2 25
-6 16 -6 25 1 25 6 0 6 6 0 19 -6 10 -8 20 -6 23 9 9 12 68 4 62 -4 -2 -6 12
-3 33 3 21 6 43 5 48 0 6 -2 29 -3 53 -2 23 2 44 7 46 6 3 4 5 -2 5 -7 1 -13
6 -13 12 0 5 4 8 9 5 5 -4 8 2 6 11 -12 59 -13 93 -3 87 7 -5 7 -1 0 12 -6 11
-7 27 -1 42 5 13 5 21 1 18 -4 -2 -8 15 -7 40 0 24 4 44 8 44 4 0 3 8 -2 19
-6 10 -8 20 -6 23 8 8 13 68 6 63 -11 -6 -7 109 4 117 6 5 5 8 -2 8 -7 0 -13
5 -13 11 0 5 4 8 8 5 4 -2 5 20 2 50 -4 35 -2 54 4 54 7 0 8 3 1 8 -14 10 -14
52 -1 52 6 0 4 5 -4 10 -11 7 -11 10 -2 10 10 0 10 5 2 20 -8 15 -8 20 2 20 9
0 9 3 -2 10 -11 7 -11 10 -2 10 9 0 10 5 4 16 -5 9 -6 32 -2 50 4 19 4 36 -1
39 -4 3 -6 11 -4 18 9 24 11 116 3 111 -4 -3 -4 6 2 20 7 19 6 26 -3 26 -8 0
-7 4 3 10 11 7 11 10 2 10 -9 0 -10 5 -3 18 6 11 6 24 0 34 -6 11 -4 18 7 22
13 5 14 9 4 21 -7 8 -10 22 -6 30 3 9 2 13 -4 10 -6 -3 -10 -1 -10 4 0 6 5 11
10 11 7 0 7 6 1 19 -8 15 -7 20 5 25 13 5 14 9 4 21 -7 8 -10 22 -6 30 3 9 2
13 -4 10 -6 -3 -10 -1 -10 4 0 6 5 11 11 11 8 0 8 5 -1 15 -7 8 -8 15 -4 15
10 0 10 62 0 78 -3 6 1 13 10 16 13 5 14 9 5 20 -6 7 -11 27 -11 42 1 16 0 48
-2 72 -2 23 1 42 7 42 6 0 3 5 -5 10 -12 8 -12 10 -1 10 11 0 11 3 1 15 -7 9
-8 15 -2 15 12 0 10 33 -3 42 -6 5 -5 8 3 8 7 0 10 5 7 10 -10 16 -13 90 -3
84 4 -3 8 -1 8 5 0 5 -6 12 -12 14 -9 4 -9 6 -2 6 8 1 9 12 4 36 -7 29 -5 35
9 35 10 0 12 3 5 8 -6 4 -13 17 -16 30 -5 16 -2 22 10 22 13 0 14 2 4 9 -7 4
-12 23 -11 42 2 19 -1 41 -6 48 -5 10 -4 12 3 7 7 -4 12 -3 12 3 0 5 -6 12
-12 14 -10 4 -9 6 1 6 11 1 11 4 1 16 -10 12 -10 15 0 15 9 0 9 4 -1 17 -10
11 -10 14 -1 9 15 -9 15 -1 2 25 -9 15 -7 19 7 20 16 0 16 1 -2 9 -11 5 -14 9
-7 9 7 1 10 5 7 11 -11 18 -14 51 -4 45 13 -9 11 9 -3 23 -9 9 -9 12 0 12 6 0
9 6 7 13 -11 34 -12 77 -2 77 7 0 6 5 -3 10 -11 7 -11 10 -2 10 9 0 10 5 3 17
-5 10 -5 26 0 41 6 15 5 21 -1 17 -6 -3 -10 -1 -10 4 0 6 5 11 11 11 7 0 8 5
3 13 -5 6 -9 31 -9 55 1 29 -3 41 -11 38 -7 -3 -10 3 -7 15 3 11 0 19 -6 19
-7 0 -10 4 -7 9 3 4 -3 19 -14 31 -11 12 -17 27 -14 31 3 5 -4 9 -14 9 -11 0
-26 8 -33 18 -13 16 -13 16 6 2 19 -14 19 -14 6 3 -7 9 -20 17 -27 17 -8 0
-14 4 -14 8 0 5 -11 15 -25 22 -13 7 -22 17 -19 21 3 5 -2 6 -10 3 -9 -4 -18
1 -22 10 -3 9 -12 16 -20 16 -8 0 -19 9 -26 20 -7 11 -18 20 -25 20 -7 0 -13
5 -13 10 0 6 -7 10 -15 10 -9 0 -20 10 -25 23 -5 12 -9 16 -9 8 -1 -8 -11 -3
-26 15 -19 23 -25 25 -25 12z"/>
<path d="M6167 6979 c-9 -6 -15 -14 -12 -20 4 -5 1 -9 -4 -9 -6 0 -11 5 -11
12 0 6 -3 8 -6 5 -4 -4 -1 -14 6 -22 7 -9 9 -15 4 -14 -15 5 -54 -11 -54 -22
0 -16 -33 -48 -44 -42 -6 3 -8 2 -3 -2 9 -10 -31 -55 -49 -55 -7 0 -16 -5 -20
-12 -5 -7 -3 -8 6 -3 9 6 11 4 6 -4 -5 -7 -14 -10 -21 -7 -7 2 -12 -3 -11 -12
0 -9 -4 -16 -11 -15 -7 2 -10 -6 -8 -17 2 -11 -1 -19 -8 -17 -7 1 -11 -4 -9
-12 2 -8 -3 -11 -11 -8 -10 4 -13 -5 -13 -34 1 -21 -2 -39 -5 -39 -3 0 -4 -21
-2 -46 4 -36 2 -44 -9 -38 -10 6 -10 4 1 -9 12 -15 16 -52 12 -108 -1 -5 -7
-7 -13 -3 -7 4 -5 -2 5 -13 18 -21 18 -22 0 -32 -17 -10 -17 -10 2 -11 11 -1
14 -4 7 -7 -6 -2 -9 -9 -6 -14 3 -6 1 -16 -6 -24 -8 -10 -8 -15 1 -21 8 -5 9
-3 4 6 -5 9 -4 11 3 6 7 -4 9 -14 4 -24 -4 -9 -7 -30 -6 -47 1 -16 -4 -33 -10
-37 -8 -6 -8 -8 1 -8 14 0 13 -40 -2 -40 -5 0 -3 -5 5 -10 13 -8 13 -13 2 -31
-12 -19 -12 -21 0 -16 17 6 17 -18 0 -50 -8 -15 -9 -24 -1 -28 5 -4 8 -12 6
-18 -2 -7 0 -20 5 -31 7 -13 7 -16 -1 -12 -6 4 -11 3 -11 -3 0 -5 5 -13 10
-16 7 -4 7 -13 0 -24 -6 -12 -5 -22 3 -31 10 -10 9 -11 -2 -5 -11 6 -13 4 -8
-10 4 -9 3 -23 -3 -30 -8 -10 -8 -15 1 -21 8 -5 9 -3 4 6 -5 9 -4 11 3 6 7 -4
9 -14 4 -24 -4 -9 -7 -30 -6 -47 1 -16 -4 -33 -10 -37 -8 -5 -7 -11 3 -20 11
-11 13 -11 6 1 -5 9 -4 12 3 7 9 -5 9 -13 2 -27 -8 -14 -7 -19 2 -19 6 0 4 -6
-7 -13 -12 -10 -14 -16 -7 -21 7 -4 12 -12 12 -17 0 -6 -6 -7 -12 -3 -10 6 -9
3 0 -8 10 -12 11 -22 3 -36 -7 -13 -7 -22 1 -30 7 -7 9 -12 5 -12 -4 0 -3 -9
3 -20 9 -16 8 -22 -4 -26 -14 -5 -14 -8 0 -21 13 -14 13 -18 -3 -36 -10 -11
-12 -17 -5 -13 13 8 13 -19 -1 -41 -4 -6 -2 -15 4 -19 8 -5 9 -3 4 6 -6 9 -4
11 4 5 9 -5 10 -10 2 -18 -13 -13 -15 -31 -3 -23 5 3 9 -1 9 -9 0 -8 -4 -12
-8 -9 -4 2 -10 0 -14 -6 -3 -5 -1 -10 6 -10 8 0 8 -4 -1 -15 -15 -18 0 -20 20
-2 8 6 6 2 -3 -10 -13 -15 -15 -23 -7 -28 8 -5 6 -13 -6 -26 -10 -11 -12 -19
-6 -19 7 0 12 -7 12 -16 0 -9 -5 -12 -12 -8 -10 6 -10 4 0 -8 10 -13 10 -17 0
-21 -10 -4 -10 -6 0 -6 6 -1 12 -8 12 -17 0 -8 -5 -12 -11 -8 -6 3 -3 -6 7
-22 11 -15 14 -25 7 -21 -6 4 -14 3 -18 -3 -3 -5 -2 -10 3 -10 13 0 11 -30 -2
-30 -6 0 -3 -5 7 -11 14 -8 16 -14 6 -25 -6 -8 -8 -14 -4 -14 4 0 1 -8 -6 -17
-8 -9 -9 -14 -3 -10 7 4 15 0 18 -9 3 -8 2 -12 -4 -9 -13 8 -13 -1 2 -28 10
-20 9 -21 -5 -9 -13 11 -15 10 -12 -5 1 -10 9 -17 16 -15 11 2 10 -1 -1 -10
-16 -14 -22 -68 -7 -68 4 0 5 -6 0 -12 -11 -18 -13 -39 -3 -33 11 7 7 -69 -5
-77 -6 -5 -5 -8 4 -8 9 0 10 -4 4 -12 -11 -16 -10 -58 1 -77 6 -10 5 -12 -2
-7 -7 4 -12 2 -12 -3 0 -6 5 -11 11 -11 8 0 7 -6 -2 -17 -10 -11 -10 -14 -1
-9 6 4 12 3 12 -3 0 -5 -5 -13 -10 -16 -6 -4 -8 -11 -4 -16 3 -5 10 -6 16 -3
7 5 8 2 4 -5 -5 -7 -15 -10 -25 -7 -12 5 -11 2 3 -9 14 -10 15 -15 6 -15 -10
0 -11 -3 -3 -11 12 -12 6 -42 -6 -34 -4 2 -8 -2 -8 -9 0 -8 6 -12 13 -9 9 3
11 -8 8 -43 -2 -27 1 -53 8 -61 9 -11 8 -13 -3 -11 -8 2 -13 -4 -13 -14 1 -10
-3 -18 -10 -18 -6 0 -3 -5 6 -11 9 -5 15 -16 12 -24 -4 -8 -10 -12 -15 -9 -5
3 -6 -2 -3 -10 3 -9 11 -13 18 -9 6 3 3 -3 -7 -14 -14 -16 -15 -23 -6 -29 8
-5 10 -3 4 6 -5 9 -4 11 4 6 8 -6 9 -12 2 -20 -7 -9 -7 -17 2 -26 7 -8 8 -11
1 -7 -15 9 -14 -85 1 -95 6 -4 1 -8 -10 -9 l-20 0 20 -9 c11 -5 14 -9 8 -9 -7
-1 -13 -8 -13 -17 0 -9 5 -13 13 -9 6 4 3 -1 -7 -9 -19 -15 -19 -16 0 -38 10
-12 13 -18 7 -14 -16 9 -16 1 -1 -27 10 -19 9 -20 -3 -10 -13 10 -15 7 -13
-18 1 -17 5 -33 8 -36 3 -3 1 -14 -5 -24 -7 -13 -6 -19 1 -19 7 0 8 -6 1 -18
-6 -10 -6 -24 -1 -32 5 -8 6 -18 3 -22 -2 -5 1 -16 9 -25 9 -12 9 -15 1 -9 -9
5 -13 1 -14 -11 0 -10 -2 -28 -3 -40 -2 -19 0 -21 12 -10 13 10 12 7 -1 -19
-12 -23 -13 -34 -4 -43 7 -7 7 -11 0 -11 -11 0 -8 -53 4 -72 4 -8 0 -9 -12 -4
-18 7 -18 6 0 -14 14 -15 15 -20 4 -20 -11 0 -11 -2 1 -10 8 -5 10 -10 5 -10
-6 0 -11 -20 -10 -45 0 -25 4 -45 9 -45 6 0 1 -7 -10 -16 -18 -14 -18 -15 6
-8 24 6 24 6 5 -10 -11 -8 -15 -16 -10 -16 6 0 3 -5 -5 -10 -10 -7 -11 -10 -2
-10 14 0 54 60 49 75 -2 6 5 18 16 28 11 9 17 17 12 17 -4 0 -2 7 5 15 10 12
10 15 -1 15 -9 1 -8 5 5 15 11 8 16 15 10 15 -5 0 0 7 10 15 11 8 15 15 8 15
-6 0 -9 7 -6 15 4 8 10 12 15 9 5 -3 6 2 3 10 -3 9 -1 16 6 16 6 0 8 5 5 10
-3 6 0 10 7 10 9 0 9 3 -2 10 -11 7 -11 10 -2 10 7 0 11 4 8 9 -3 5 1 12 10
15 9 3 14 13 10 21 -3 8 2 21 10 30 8 8 16 24 17 35 1 11 7 22 13 24 7 3 15
18 19 35 4 17 10 29 15 26 5 -3 12 0 16 6 4 8 3 9 -4 5 -19 -11 -8 35 11 49 9
7 14 15 10 18 -3 4 0 13 6 21 7 8 10 20 6 26 -4 6 -1 9 7 8 7 -2 12 3 10 10
-1 6 2 12 7 12 5 0 12 7 15 16 3 8 2 13 -3 10 -5 -4 -7 3 -4 14 3 10 10 18 17
17 6 -1 10 4 8 12 -1 7 3 20 10 29 11 13 11 14 -2 7 -13 -8 -13 -7 0 9 8 10
16 30 18 44 2 15 8 32 13 38 7 8 6 14 -1 19 -5 3 -10 15 -10 26 0 10 -5 19
-11 19 -6 0 -9 9 -6 20 4 14 0 20 -11 20 -13 0 -13 2 3 13 14 11 15 16 5 22
-9 6 -11 4 -5 -5 5 -9 4 -11 -4 -6 -9 6 -9 11 1 24 7 9 8 13 2 9 -15 -9 -24
46 -11 69 6 11 6 15 -1 10 -5 -3 -12 3 -15 15 -4 15 -2 18 7 10 8 -7 12 -5 12
9 0 10 -4 17 -7 14 -4 -2 -10 0 -13 5 -3 5 1 11 9 14 11 5 12 13 4 39 -11 41
-11 41 1 33 7 -4 7 3 0 20 -13 34 -13 37 3 30 6 -4 3 1 -7 9 -11 9 -15 16 -9
16 6 0 11 11 11 25 0 16 -5 22 -12 18 -8 -5 -8 -3 0 8 18 24 24 48 12 55 -7 5
-8 2 -3 -6 5 -9 4 -11 -4 -6 -6 4 -8 13 -4 19 11 17 10 97 -1 97 -6 0 -2 6 9
13 14 11 15 16 5 22 -9 6 -11 4 -5 -5 5 -9 4 -11 -3 -6 -9 5 -7 15 6 34 9 14
12 23 6 19 -7 -4 -11 2 -11 18 0 14 3 22 8 19 5 -3 6 2 3 10 -3 9 -11 16 -17
16 -6 0 -3 6 8 13 14 11 15 16 5 22 -9 6 -11 4 -5 -5 5 -8 4 -11 -3 -6 -6 4
-9 13 -6 21 4 8 9 13 14 10 4 -2 5 7 2 21 -3 19 -7 22 -13 12 -5 -7 -9 -8 -9
-2 0 6 3 14 7 18 4 3 8 16 10 27 2 14 -1 18 -9 13 -10 -6 -11 -4 0 7 6 7 12
17 12 22 0 4 -6 5 -12 1 -10 -6 -10 -4 -2 7 12 16 12 109 -1 129 -5 8 -4 11 2
7 6 -4 9 12 9 38 -1 25 -5 45 -11 45 -5 0 -3 5 5 10 12 8 12 10 1 10 -11 0
-11 3 0 16 10 13 10 17 -2 25 -12 7 -12 9 1 9 12 0 12 2 1 9 -9 6 -10 10 -2
16 7 4 8 12 3 18 -10 14 -9 87 1 104 4 6 3 23 -3 37 -6 17 -6 27 1 32 8 4 7 9
-2 15 -11 7 -11 9 1 9 13 0 13 1 0 10 -13 9 -13 10 0 10 13 0 13 1 0 10 -13 9
-13 10 0 10 13 0 13 1 0 10 -13 9 -13 10 0 10 13 0 13 1 0 10 -13 9 -13 10 0
10 13 0 13 1 0 10 -13 9 -13 11 0 20 13 9 13 11 0 20 -13 9 -13 10 0 10 13 0
13 1 0 10 -13 9 -13 11 0 20 13 9 13 11 0 20 -13 9 -13 10 0 10 13 0 13 1 0
10 -13 9 -13 10 0 10 13 0 13 1 0 10 -13 9 -13 10 0 10 13 0 13 1 0 10 -13 9
-13 10 0 10 13 0 13 1 0 10 -13 9 -13 10 0 10 13 0 13 1 0 10 -9 6 -11 13 -5
18 6 4 10 14 10 22 0 8 -4 18 -10 23 -6 4 -5 10 4 16 9 6 10 11 2 15 -8 5 -8
13 -1 26 7 13 6 20 -3 24 -9 5 -9 7 1 12 6 3 9 10 6 16 -10 16 -11 51 -2 70 5
10 3 18 -5 21 -9 3 -9 7 2 20 11 14 11 17 0 17 -11 0 -11 2 1 10 13 9 13 10 0
10 -12 0 -12 2 -1 9 9 6 10 11 2 15 -6 4 -8 13 -4 19 12 19 11 51 -1 60 -8 5
-6 10 4 17 13 9 13 11 0 20 -13 9 -13 10 0 10 13 0 13 1 0 10 -13 9 -13 10 0
10 13 0 13 1 0 10 -13 9 -13 10 0 10 13 0 13 1 0 10 -13 9 -13 11 0 20 13 8
13 11 1 19 -8 5 -10 14 -5 22 12 20 13 59 1 59 -5 0 -4 7 3 15 9 11 9 15 1 15
-9 0 -9 5 -1 21 8 15 8 24 0 34 -8 10 -8 15 1 20 8 6 7 10 -2 16 -8 5 -9 9 -3
9 6 0 11 7 11 15 0 8 -5 15 -10 15 -5 0 -4 7 4 16 8 10 9 18 2 22 -12 8 -11
48 2 59 4 5 5 3 1 -4 -3 -6 -2 -14 3 -18 6 -3 8 4 6 16 -3 13 -10 26 -16 30
-7 4 -8 12 -3 20 12 20 14 59 2 59 -6 0 -6 6 2 15 10 12 10 15 0 15 -9 0 -10
3 -1 13 8 10 7 17 -2 27 -6 7 -7 10 -1 7 6 -3 10 5 10 19 0 13 0 24 0 24 -1 0
-9 -5 -19 -11z m-267 -939 c0 -5 -5 -10 -11 -10 -5 0 -7 5 -4 10 3 6 8 10 11
10 2 0 4 -4 4 -10z"/>
<path d="M9768 6984 c-4 -3 -4 -13 -1 -22 5 -11 3 -13 -8 -7 -11 7 -12 6 -3
-6 14 -19 16 -61 2 -53 -5 4 -2 -6 8 -22 11 -15 14 -25 7 -21 -6 4 -14 3 -18
-3 -3 -5 -2 -10 3 -10 12 0 12 -33 0 -41 -5 -3 -2 -13 7 -23 9 -9 12 -16 6
-16 -6 0 -7 -7 -4 -17 5 -12 3 -14 -8 -8 -11 7 -12 6 -2 -6 17 -21 17 -22 5
-45 -8 -16 -8 -24 1 -33 9 -9 8 -14 -3 -21 -10 -7 -11 -10 -2 -10 14 0 12 -21
-3 -32 -6 -5 -5 -8 4 -8 11 0 11 -3 0 -17 -10 -11 -10 -14 -1 -9 15 9 16 -6 0
-22 -9 -9 -9 -12 1 -12 11 0 11 -3 1 -15 -7 -8 -8 -15 -3 -15 5 0 10 -7 10
-15 0 -8 -5 -15 -11 -15 -6 0 -5 -4 3 -9 9 -6 10 -10 2 -16 -9 -5 -9 -10 0
-21 9 -11 8 -14 -2 -14 -11 0 -11 -2 1 -10 13 -9 13 -10 0 -10 -13 0 -13 -1 0
-10 13 -9 13 -10 0 -10 -13 0 -13 -1 0 -10 13 -9 13 -10 0 -10 -13 0 -13 -1 0
-10 13 -9 13 -10 0 -10 -13 0 -13 -1 0 -10 11 -7 11 -10 2 -10 -10 0 -10 -5
-1 -21 8 -15 8 -19 0 -15 -15 10 -14 -7 2 -23 10 -11 9 -12 -3 -6 -13 8 -13 7
-1 -8 10 -13 10 -17 1 -17 -10 0 -10 -3 -1 -14 9 -11 9 -15 -1 -19 -10 -4 -9
-6 1 -6 11 -1 10 -5 -5 -17 -10 -8 -14 -13 -7 -10 6 4 14 2 18 -4 3 -5 1 -10
-6 -10 -9 0 -9 -3 0 -14 8 -10 9 -16 1 -21 -5 -3 -10 -11 -10 -16 0 -6 6 -7
13 -3 9 6 9 4 -1 -8 -10 -13 -10 -17 0 -20 10 -4 10 -8 -1 -21 -11 -14 -11
-17 0 -17 11 0 11 -2 -1 -10 -13 -9 -13 -10 0 -10 12 0 12 -2 1 -9 -9 -6 -10
-10 -2 -16 9 -5 9 -10 0 -21 -9 -11 -8 -14 2 -14 12 0 12 -2 0 -9 -9 -6 -10
-10 -2 -16 9 -5 9 -10 0 -21 -9 -11 -8 -14 2 -15 8 0 5 -4 -6 -9 -15 -6 -16
-9 -4 -9 16 -1 23 -31 6 -31 -5 0 -3 -8 4 -17 12 -15 12 -16 -1 -8 -12 7 -13
6 -3 -6 10 -12 10 -18 1 -27 -9 -9 -9 -12 1 -12 10 0 11 -3 2 -14 -9 -11 -9
-16 0 -21 8 -6 7 -10 -2 -16 -12 -7 -11 -9 0 -9 12 0 12 -3 3 -12 -14 -14 -16
-32 -4 -24 5 3 9 -1 9 -9 0 -8 -5 -15 -11 -15 -7 0 -7 -3 -1 -8 14 -10 15 -42
1 -42 -6 0 -4 -5 4 -10 13 -9 13 -11 0 -20 -11 -7 -11 -10 -2 -10 8 0 10 -5 5
-12 -12 -20 -12 -37 -1 -44 6 -4 5 -10 -3 -15 -11 -7 -11 -9 1 -9 13 0 13 -1
0 -10 -13 -9 -13 -10 0 -10 13 0 13 -1 0 -10 -12 -8 -12 -10 -1 -10 11 0 11
-3 1 -15 -10 -12 -10 -15 0 -15 9 0 10 -3 1 -13 -7 -9 -7 -17 0 -24 7 -7 5
-15 -6 -27 -13 -13 -14 -16 -2 -16 7 0 14 -7 14 -15 0 -8 -5 -15 -10 -15 -5 0
-3 -8 4 -17 12 -15 12 -16 -1 -8 -13 7 -13 6 -2 -7 10 -12 10 -18 1 -23 -8 -6
-7 -10 2 -16 11 -7 11 -9 -1 -9 -13 0 -13 -1 0 -10 8 -5 10 -10 4 -10 -6 0
-11 -7 -11 -15 0 -8 5 -15 10 -15 5 0 3 -8 -4 -17 -12 -15 -12 -16 1 -8 13 8
13 7 1 -8 -7 -9 -9 -17 -4 -17 10 0 10 -41 -1 -58 -4 -7 -2 -12 6 -12 9 0 9
-3 -2 -10 -11 -7 -11 -10 -2 -10 9 0 10 -5 3 -18 -7 -13 -6 -23 1 -30 9 -9 9
-12 0 -12 -7 0 -12 -5 -12 -11 0 -5 4 -8 8 -5 4 2 8 -4 8 -14 0 -10 -3 -17 -7
-14 -9 5 -6 -17 4 -33 5 -8 3 -13 -5 -13 -9 0 -9 -3 2 -10 13 -9 13 -10 0 -10
-13 0 -13 -1 0 -10 13 -9 13 -10 0 -10 -12 0 -12 -2 -1 -9 9 -6 10 -10 2 -16
-8 -4 -9 -11 -2 -19 6 -7 6 -17 1 -26 -5 -9 -5 -19 2 -27 7 -9 7 -13 -2 -13
-9 0 -10 -3 -1 -13 8 -10 7 -17 -2 -27 -10 -10 -9 -11 2 -5 11 6 13 4 7 -11
-13 -32 -15 -55 -5 -49 13 9 11 -9 -3 -23 -7 -7 -8 -12 -2 -12 5 0 10 -9 11
-20 1 -11 -2 -18 -6 -16 -10 6 -8 -25 3 -42 4 -7 2 -12 -6 -12 -9 0 -9 -3 2
-10 13 -9 13 -10 0 -10 -13 0 -13 -1 0 -10 12 -8 12 -10 1 -10 -11 0 -11 -3
-1 -15 9 -10 9 -15 1 -15 -6 0 -11 -5 -11 -11 0 -5 6 -7 13 -3 8 5 8 2 -2 -9
-9 -12 -10 -17 -2 -17 7 0 9 -5 6 -10 -4 -6 -11 -8 -16 -5 -5 3 -6 -1 -3 -9 3
-9 11 -13 18 -9 6 4 5 -1 -2 -10 -8 -9 -10 -22 -6 -28 5 -9 2 -10 -11 -5 -14
5 -16 4 -7 -7 9 -10 8 -17 -1 -27 -10 -10 -9 -11 3 -5 12 6 13 5 3 -6 -15 -15
-18 -33 -5 -25 5 3 9 -1 9 -9 0 -8 -5 -12 -10 -8 -5 3 -6 -4 -2 -17 5 -16 4
-20 -5 -15 -9 6 -9 3 -1 -13 8 -15 6 -23 -9 -37 -24 -22 -23 -74 1 -70 12 2
15 -2 12 -15 -3 -10 0 -21 7 -25 8 -5 8 -10 0 -20 -8 -10 -8 -15 1 -21 8 -5 9
-3 4 6 -5 8 -4 11 3 6 6 -4 9 -13 5 -21 -3 -8 0 -15 7 -15 7 0 10 -7 6 -15 -3
-9 1 -18 9 -21 8 -4 12 -10 9 -15 -3 -5 -1 -9 4 -9 6 0 13 -7 16 -16 5 -14 4
-15 -9 -4 -12 10 -12 8 1 -19 17 -34 27 -41 18 -13 -5 13 -4 14 4 3 5 -7 7
-22 5 -32 -3 -10 -1 -19 5 -19 6 0 9 -9 7 -21 -4 -17 -2 -19 11 -8 12 10 13 9
9 -4 -4 -8 -2 -18 4 -22 6 -3 11 -12 11 -18 0 -7 -4 -6 -10 3 -5 8 -10 11 -10
6 0 -6 10 -21 23 -34 12 -14 15 -22 7 -18 -8 4 -4 -2 9 -13 14 -13 18 -21 10
-21 -12 0 -12 -2 -1 -9 7 -4 14 -14 15 -22 2 -8 17 -36 35 -62 18 -27 28 -45
22 -42 -17 10 -11 -7 8 -22 16 -14 16 -14 -2 -8 -15 4 -12 -1 9 -21 19 -17 25
-29 17 -32 -8 -2 -7 -9 6 -20 10 -10 11 -12 2 -7 -13 9 -13 8 0 -9 8 -10 16
-29 18 -42 3 -27 31 -64 47 -64 5 0 4 4 -4 9 -8 5 -12 18 -8 30 3 12 1 21 -4
21 -6 0 -7 6 -1 16 12 21 3 56 -12 48 -6 -3 -2 2 8 10 12 9 15 16 7 16 -9 0
-11 9 -6 29 4 18 2 32 -5 36 -9 6 -9 9 0 15 9 6 9 12 0 30 -8 15 -8 20 -1 16
14 -9 14 0 1 24 -8 15 -6 21 7 29 10 6 12 11 6 11 -13 0 -13 26 0 47 4 7 0 16
-10 22 -11 6 -13 11 -5 11 7 0 11 4 7 9 -3 5 -1 12 5 16 6 4 3 16 -8 33 -9 14
-12 23 -6 19 7 -4 14 0 18 8 3 8 0 15 -6 15 -7 0 -6 5 2 15 10 12 10 15 0 15
-9 0 -10 3 -1 13 8 10 7 17 -1 25 -9 9 -9 12 2 12 12 0 13 2 1 9 -9 6 -10 11
-2 15 14 9 14 26 0 26 -5 0 -7 -5 -3 -12 4 -7 3 -8 -5 -4 -9 6 -9 11 0 22 6 8
8 14 4 14 -4 0 -1 8 6 17 8 9 9 14 3 10 -7 -4 -15 0 -18 9 -3 8 -2 13 3 10 5
-3 11 3 14 14 3 11 1 18 -4 14 -5 -3 -9 0 -9 5 0 6 6 11 13 11 9 0 9 2 -1 8
-10 7 -10 15 -2 36 7 18 7 25 0 21 -9 -6 -8 27 2 63 1 4 -4 18 -11 31 -7 13
-8 21 -3 17 6 -3 13 -2 17 4 3 5 2 10 -4 10 -10 0 -7 31 5 53 5 7 0 6 -11 -3
-17 -14 -18 -14 -6 8 6 12 9 22 5 22 -3 0 -2 6 4 13 9 10 7 19 -5 37 -9 13
-11 20 -5 16 6 -3 13 -2 17 4 3 5 2 10 -2 10 -5 0 -8 21 -7 47 1 25 -2 57 -7
70 -6 16 -5 22 1 18 6 -4 8 11 4 40 -3 31 -1 52 8 63 7 9 8 13 2 9 -7 -4 -15
0 -18 9 -3 8 -2 13 3 10 5 -3 11 1 15 9 3 8 1 17 -3 20 -16 9 -19 56 -4 62 11
4 10 8 -4 20 -10 8 -13 12 -7 9 14 -7 27 21 15 29 -13 8 -19 55 -8 62 5 3 7 1
3 -5 -3 -6 -2 -13 3 -16 14 -9 7 19 -9 40 -8 10 -10 15 -5 12 6 -4 10 34 10
107 0 73 -4 111 -10 107 -5 -3 -2 7 9 22 10 16 14 26 8 22 -5 -3 -13 1 -16 10
-3 8 -2 13 3 10 10 -7 23 19 14 28 -9 9 -10 77 -1 82 4 3 0 17 -10 32 -9 14
-12 23 -5 19 6 -4 14 -3 18 3 3 5 2 10 -2 10 -5 0 -8 21 -7 47 1 25 -2 57 -7
70 -6 16 -5 22 1 18 6 -4 8 11 4 40 -3 31 -1 52 8 63 7 9 8 13 2 9 -7 -4 -15
0 -18 9 -3 8 -2 12 3 9 5 -3 12 -1 16 5 3 5 2 10 -2 10 -11 0 -9 62 2 80 5 8
4 11 -2 7 -6 -4 -14 0 -17 9 -3 8 -2 13 3 10 5 -3 11 1 15 9 3 8 1 17 -4 20
-6 3 -6 15 0 30 5 13 5 27 1 29 -5 3 -8 17 -8 31 0 13 3 23 7 20 3 -2 7 2 7
10 0 8 -4 12 -8 10 -4 -3 -9 2 -13 10 -3 8 0 17 6 21 7 5 8 2 3 -6 -6 -9 -4
-11 4 -5 9 5 9 11 3 17 -7 7 -7 19 -1 35 8 21 7 24 -5 20 -10 -4 -13 -1 -9 8
3 8 10 12 16 8 6 -4 7 -1 1 8 -12 20 -12 81 0 98 8 11 8 13 -1 7 -16 -9 -16
-1 -3 25 6 11 8 25 3 32 -10 16 -11 47 -1 41 4 -3 8 0 8 5 0 6 -4 11 -8 11 -5
0 -9 7 -9 15 0 8 4 12 9 9 4 -3 8 0 8 5 0 6 -6 11 -12 11 -9 0 -8 4 2 10 10 6
11 10 3 10 -7 0 -13 5 -13 11 0 5 4 8 8 5 4 -2 8 4 8 14 0 10 -5 16 -10 13 -5
-3 -6 -1 -2 5 13 22 15 52 3 52 -7 0 -6 4 3 10 13 9 13 10 0 10 -13 0 -13 1 0
10 13 9 13 10 0 10 -13 0 -13 1 0 10 13 9 13 10 0 10 -13 0 -13 1 0 10 13 8
12 10 -4 10 -20 0 -20 0 0 15 10 8 14 15 8 15 -12 0 -12 29 1 49 5 9 4 12 -2
8 -6 -4 -10 4 -10 18 0 16 4 22 11 18 6 -4 5 1 -3 10 -7 9 -11 24 -7 32 3 8 0
15 -7 15 -8 0 -8 3 2 9 9 6 10 11 3 15 -6 4 -8 14 -5 23 4 11 3 14 -5 9 -8 -5
-12 0 -12 14 0 11 -7 23 -15 26 -8 4 -13 9 -11 13 3 4 -6 15 -19 25 -14 10
-22 22 -19 27 3 5 -3 6 -12 2 -10 -3 -15 -2 -12 3 6 9 -13 32 -29 37 -5 1 -7
5 -5 10 1 4 -7 7 -19 7 -11 0 -17 5 -14 10 3 6 1 10 -5 10 -6 0 -8 5 -4 12 4
6 3 8 -3 5 -12 -7 -44 28 -35 39 4 4 2 5 -3 1 -13 -7 -29 2 -41 26 -6 10 -13
15 -16 11z m177 -3402 c-3 -3 -11 0 -18 7 -9 10 -8 11 6 5 10 -3 15 -9 12 -12z"/>
<path d="M6009 6833 c-13 -16 -12 -17 4 -4 9 7 17 15 17 17 0 8 -8 3 -21 -13z"/>
<path d="M6395 6121 c-3 -5 -2 -12 3 -15 5 -3 9 1 9 9 0 17 -3 19 -12 6z"/>
<path d="M5293 5795 c0 -8 4 -12 9 -9 5 3 6 10 3 15 -9 13 -12 11 -12 -6z"/>
<path d="M7660 3945 c-7 -8 -17 -12 -22 -9 -18 11 -58 11 -58 0 0 -6 -4 -5 -9
3 -6 10 -13 10 -28 2 -11 -5 -23 -8 -26 -4 -9 8 -136 9 -130 1 2 -5 -1 -8 -6
-8 -6 0 -11 5 -11 10 0 6 -5 10 -11 10 -5 0 -8 -4 -5 -8 2 -4 -4 -8 -14 -8
-10 0 -16 4 -14 8 8 12 -11 9 -24 -4 -9 -9 -12 -9 -12 1 0 10 -3 11 -13 2 -10
-7 -17 -7 -24 0 -7 7 -17 8 -30 1 -12 -7 -25 -7 -37 0 -15 9 -18 8 -14 -4 4
-8 0 -15 -8 -15 -7 0 -10 5 -7 10 4 6 0 8 -10 4 -9 -3 -19 -2 -22 3 -8 13 -36
0 -29 -14 3 -6 -1 -3 -9 7 -12 15 -16 15 -20 3 -7 -17 -28 -16 -50 2 -9 8 -18
9 -21 3 -3 -5 -16 -7 -29 -4 -18 4 -19 3 -7 -6 8 -6 11 -11 6 -11 -5 0 -17 7
-27 16 -13 12 -19 12 -25 3 -4 -8 -3 -10 4 -5 18 11 14 0 -5 -15 -9 -8 -14 -9
-10 -3 4 7 0 17 -7 23 -11 9 -16 9 -22 0 -5 -8 -3 -9 6 -4 8 5 11 4 7 -2 -4
-6 -18 -8 -33 -5 -19 3 -22 7 -12 13 7 5 8 9 2 9 -6 0 -14 -3 -18 -7 -11 -11
-30 -10 -38 2 -5 6 -8 5 -8 -3 0 -8 -5 -10 -12 -5 -19 11 -39 13 -32 2 3 -5
-2 -9 -10 -9 -9 0 -16 6 -16 13 0 8 -4 7 -10 -3 -7 -11 -10 -11 -10 -2 0 9 -6
10 -17 4 -16 -7 -41 -8 -68 -2 -5 1 -12 1 -15 0 -14 -5 -58 -5 -54 1 3 6 -24
5 -113 -3 -7 -1 -10 -5 -7 -10 3 -4 0 -8 -7 -8 -8 0 -8 -4 1 -16 8 -8 9 -14 4
-12 -5 2 -10 -1 -11 -6 0 -5 -8 -13 -17 -18 -9 -5 -14 -13 -11 -19 4 -5 1 -9
-6 -9 -7 0 -9 -3 -6 -7 4 -3 -1 -15 -10 -26 -10 -11 -12 -17 -6 -13 9 5 11 2
7 -9 -4 -9 -12 -14 -19 -11 -10 3 -11 -2 -5 -23 6 -23 5 -28 -9 -27 -11 1 -16
-6 -15 -21 1 -13 -4 -23 -12 -23 -8 0 -11 -6 -8 -15 4 -8 -1 -17 -9 -21 -9 -3
-13 -12 -11 -19 3 -7 0 -16 -5 -20 -6 -3 -9 -11 -6 -16 4 -5 1 -9 -5 -9 -6 0
-8 -4 -5 -10 3 -5 -3 -20 -15 -32 -11 -12 -16 -24 -11 -27 5 -4 4 -14 -3 -23
-7 -10 -15 -16 -17 -13 -3 2 -6 -7 -7 -21 -1 -14 -11 -38 -21 -53 -15 -20 -17
-31 -9 -45 9 -16 8 -18 -7 -12 -13 4 -16 2 -11 -9 3 -8 2 -14 -2 -14 -19 3
-25 -2 -12 -11 9 -6 11 -10 3 -10 -7 0 -10 -7 -7 -15 4 -10 0 -15 -11 -15 -9
0 -14 -4 -10 -9 3 -5 1 -12 -4 -16 -5 -3 -8 -14 -6 -25 2 -12 0 -18 -6 -15 -5
4 -9 1 -9 -5 0 -6 -4 -9 -9 -6 -4 3 -6 -6 -3 -19 3 -16 -1 -27 -11 -31 -9 -3
-13 -12 -10 -21 4 -11 2 -14 -5 -9 -7 4 -10 -1 -7 -14 2 -12 -2 -23 -11 -27
-8 -3 -13 -11 -10 -19 3 -7 0 -15 -7 -18 -9 -3 -8 -5 1 -5 7 -1 10 -5 7 -11
-3 -5 1 -10 9 -10 8 0 18 5 21 10 4 6 12 7 18 3 7 -4 19 -8 28 -8 9 0 23 -6
33 -14 15 -12 16 -12 9 5 -7 18 -6 18 19 2 17 -11 29 -14 33 -8 3 6 11 10 16
10 6 0 8 -4 4 -9 -10 -17 40 -2 54 16 12 15 13 16 8 1 -8 -23 4 -31 18 -11 9
13 14 13 20 3 6 -9 4 -11 -5 -5 -9 5 -11 4 -6 -3 5 -9 14 -8 31 4 20 13 25 13
36 1 12 -12 15 -12 27 0 12 12 18 11 39 -3 15 -9 22 -11 18 -3 -6 9 -3 11 8 6
10 -3 17 -2 17 3 0 5 9 8 19 7 11 0 18 -4 15 -8 -2 -4 0 -10 6 -14 5 -3 10 1
10 10 0 11 5 13 18 8 9 -5 31 -8 47 -7 17 1 33 -4 37 -10 5 -7 8 -3 8 9 1 18
2 18 13 4 10 -13 15 -14 24 -4 7 7 9 16 5 21 -4 4 4 0 18 -9 27 -19 44 -22 35
-7 -3 6 1 7 9 4 9 -3 13 -11 11 -18 -3 -6 0 -3 7 6 11 15 13 15 23 1 10 -13
14 -13 20 -3 6 9 4 11 -5 5 -9 -6 -11 -4 -5 5 6 10 11 9 22 -5 7 -11 13 -14
13 -8 0 19 29 23 45 7 8 -9 15 -11 15 -5 0 6 5 11 11 11 5 0 7 -6 4 -12 -4 -7
0 -5 8 5 15 18 28 23 26 10 -4 -22 3 -25 16 -7 15 19 15 19 9 -1 -5 -19 -5
-19 9 -2 8 9 17 17 20 17 4 0 4 -8 0 -17 -6 -16 -4 -16 15 1 12 11 25 16 29
13 3 -4 1 -7 -5 -7 -7 0 -12 -3 -12 -7 0 -11 58 -8 68 2 4 5 1 5 -7 0 -10 -6
-12 -4 -7 4 6 9 12 8 26 -4 14 -12 20 -13 26 -4 5 8 3 10 -6 4 -8 -5 -11 -4
-7 3 8 12 32 10 44 -3 4 -4 2 -5 -6 0 -10 6 -12 4 -7 -4 6 -9 11 -9 23 1 20
16 41 19 50 6 4 -7 1 -8 -7 -3 -9 5 -11 4 -6 -3 5 -9 13 -8 30 4 21 13 25 13
39 0 12 -12 17 -13 20 -3 4 9 8 8 16 -3 9 -13 11 -13 11 0 0 9 9 16 19 16 11
0 17 -4 14 -9 -3 -5 4 -6 16 -2 12 4 28 2 36 -5 10 -8 15 -8 21 1 4 8 3 9 -4
5 -8 -5 -10 -2 -6 8 5 13 9 12 26 -7 11 -12 17 -17 14 -11 -4 8 9 13 38 15 24
2 42 1 39 -3 -2 -5 1 -8 6 -8 6 0 11 3 11 8 0 4 25 7 55 8 30 0 55 -4 55 -8 0
-5 -5 -6 -12 -2 -7 5 -8 3 -3 -6 7 -11 10 -10 19 1 11 15 122 19 143 6 6 -4
14 -1 16 5 4 10 8 9 16 -2 7 -10 11 -11 11 -2 0 6 4 12 10 12 5 0 7 -8 4 -17
-5 -14 -4 -15 4 -4 12 17 140 22 161 6 11 -7 13 -7 7 3 -6 9 -1 11 20 8 15 -3
35 0 43 7 10 8 12 8 8 1 -4 -7 3 -14 18 -16 15 -3 22 -1 18 5 -4 6 4 7 21 3
17 -4 26 -2 26 6 0 6 7 3 16 -8 8 -10 13 -13 9 -6 -5 9 3 11 30 6 29 -4 35 -3
29 8 -4 7 3 4 16 -7 13 -11 20 -14 16 -7 -4 6 -3 12 1 12 5 0 15 -6 22 -12 11
-11 13 -10 7 0 -8 13 19 13 41 -1 6 -4 15 -2 19 4 5 8 3 9 -7 4 -8 -5 -10 -4
-6 0 10 11 39 16 32 5 -3 -4 4 -10 15 -13 11 -3 18 -1 15 4 -7 10 75 7 92 -4
6 -4 15 -2 19 4 5 8 3 9 -6 4 -8 -5 -11 -4 -6 3 8 13 36 5 36 -12 0 -6 4 -5 9
3 5 8 17 16 25 17 9 1 14 -1 11 -6 -3 -4 4 -10 15 -13 11 -3 17 -1 14 4 -6 11
25 7 45 -5 10 -6 12 -5 7 2 -10 16 16 15 33 0 11 -11 12 -10 6 1 -6 10 -4 13
7 8 9 -3 21 0 28 6 9 9 11 9 6 1 -4 -8 5 -12 28 -12 19 0 40 -3 47 -8 8 -4 10
-3 5 4 -9 15 4 15 40 2 23 -9 25 -8 15 3 -9 12 -7 13 14 9 14 -2 23 -8 20 -12
-2 -4 7 -5 20 -2 15 2 22 9 18 16 -3 6 4 2 17 -9 13 -11 20 -14 16 -7 -5 9 2
11 31 6 21 -3 42 -8 47 -12 5 -3 6 0 2 6 -5 8 1 12 14 12 14 0 19 -4 15 -12
-4 -7 0 -5 7 4 13 15 15 15 26 0 7 -9 10 -11 7 -4 -7 13 20 13 42 -1 6 -4 15
-2 19 4 5 8 3 9 -6 4 -9 -5 -11 -4 -6 4 5 7 12 9 19 3 7 -5 55 -8 107 -7 53 1
101 -3 109 -9 12 -9 13 -8 6 3 -6 11 -3 13 19 7 17 -4 26 -2 26 6 0 6 7 3 16
-8 8 -10 13 -13 9 -6 -7 13 20 13 42 -1 6 -4 15 -2 19 4 5 8 3 9 -6 4 -9 -5
-11 -4 -6 4 6 9 11 9 22 0 8 -6 14 -8 14 -4 0 4 8 1 17 -6 13 -11 15 -11 9 -1
-6 10 1 12 34 7 28 -4 40 -3 35 4 -3 7 0 8 9 5 9 -3 16 -11 16 -18 0 -6 5 -3
11 7 6 9 15 14 22 10 6 -4 43 -7 82 -8 38 0 77 -5 85 -10 13 -8 13 -7 1 8 -12
15 -12 17 1 12 9 -4 15 0 15 10 0 8 -3 15 -7 15 -3 0 -6 10 -7 22 -1 11 -6 24
-11 27 -15 10 -32 48 -32 72 0 19 -2 20 -17 8 -10 -9 -14 -9 -10 -2 4 7 1 28
-7 47 -8 19 -11 38 -8 42 4 4 1 4 -5 0 -12 -6 -18 5 -14 27 0 4 -3 7 -9 7 -5
0 -10 7 -10 15 0 8 -6 15 -12 15 -9 0 -8 4 2 10 13 8 13 10 -2 10 -10 0 -15 7
-14 18 2 9 -5 24 -16 34 -14 12 -15 17 -6 21 10 4 10 6 1 6 -7 1 -13 10 -13
21 0 11 -5 20 -11 20 -6 0 -9 6 -6 14 7 17 -26 49 -38 39 -5 -5 -3 0 4 10 10
12 10 17 2 17 -8 0 -11 11 -9 27 2 17 -2 28 -12 30 -13 4 -13 3 0 -7 13 -10
13 -11 0 -7 -9 2 -15 15 -14 30 0 15 -4 27 -8 27 -4 0 -8 7 -8 16 0 8 -4 13
-9 10 -5 -3 -8 5 -8 19 0 13 -7 31 -16 39 -8 9 -14 24 -13 33 2 10 -5 25 -16
35 -14 12 -15 17 -6 21 11 4 10 6 0 6 -7 1 -11 5 -7 10 3 6 -5 20 -17 32 -13
12 -17 18 -9 14 20 -11 3 16 -21 33 -10 7 -18 21 -19 30 0 11 -2 13 -6 4 -4
-10 -8 -10 -21 0 -10 8 -13 9 -9 1 8 -13 -29 -13 -50 0 -6 4 -14 3 -17 -2 -4
-5 -20 -7 -36 -5 -20 4 -30 1 -30 -7 0 -7 -7 -4 -16 7 -8 10 -13 13 -9 7 4 -8
0 -13 -10 -13 -10 0 -13 5 -9 13 6 9 4 9 -7 2 -17 -12 -39 -13 -58 -1 -10 6
-12 5 -7 -2 5 -8 -1 -12 -14 -12 -14 0 -19 4 -14 13 4 6 -2 4 -13 -6 -21 -18
-58 -13 -46 7 5 8 3 8 -8 0 -17 -13 -98 -13 -118 0 -9 6 -12 5 -8 -1 4 -7 -39
-9 -128 -8 -93 1 -135 -1 -135 -9 0 -6 -5 -4 -10 4 -9 13 -10 13 -10 0 -1 -12
-3 -11 -11 3 -6 10 -15 14 -22 10 -23 -14 -59 -15 -52 -1 4 7 -1 4 -9 -6 -9
-11 -16 -15 -16 -10 0 12 -60 11 -79 -1 -9 -5 -12 -4 -8 2 7 11 -71 12 -89 0
-6 -3 -14 -3 -18 1 -11 10 -30 9 -38 -3 -5 -7 -8 -7 -8 1 0 12 -59 12 -79 0
-10 -6 -12 -5 -7 3 5 8 0 10 -18 7 -14 -3 -30 -7 -35 -10 -5 -4 -13 -1 -17 5
-5 8 -3 9 6 4 9 -5 11 -4 6 4 -4 6 -13 8 -19 4 -7 -4 -23 -9 -35 -11 -17 -2
-22 1 -16 10 4 7 -2 5 -13 -5 -11 -9 -22 -14 -26 -11 -12 12 -97 13 -97 1 0
-8 -3 -8 -8 -2 -10 14 -232 15 -232 1 0 -6 -5 -4 -10 4 -9 13 -10 13 -10 0 -1
-12 -3 -11 -11 3 -6 10 -15 14 -22 10 -20 -12 -59 -15 -52 -3 9 15 -1 12 -15
-5z m2065 -445 c3 -6 -1 -7 -9 -4 -18 7 -21 14 -7 14 6 0 13 -4 16 -10z"/>
<path d="M830 3915 c14 -17 14 -17 -6 -7 -12 6 -26 7 -34 2 -8 -5 -18 -6 -24
-3 -5 3 -6 1 -2 -5 11 -18 -4 -37 -15 -21 -6 10 -8 5 -5 -13 4 -21 1 -28 -11
-28 -9 0 -13 -3 -10 -7 4 -3 1 -13 -6 -21 -10 -13 -9 -14 3 -8 8 4 4 -1 -9
-12 -18 -15 -21 -21 -10 -25 11 -4 11 -6 1 -6 -7 -1 -10 -5 -7 -11 4 -6 -1 -7
-11 -3 -13 5 -16 3 -11 -10 4 -12 1 -17 -11 -18 -12 0 -13 -2 -3 -6 11 -4 8
-10 -10 -25 -13 -11 -17 -16 -9 -12 12 6 13 5 3 -8 -7 -8 -10 -18 -6 -21 3 -4
2 -7 -4 -7 -13 0 -35 -49 -28 -61 3 -5 -1 -6 -10 -3 -11 5 -14 2 -9 -10 4 -10
0 -18 -10 -22 -9 -3 -16 -12 -16 -20 0 -7 -8 -18 -17 -24 -17 -11 -17 -11 0
-6 15 5 16 3 7 -15 -6 -11 -18 -23 -26 -26 -7 -3 -12 -9 -9 -13 3 -5 1 -11 -5
-15 -6 -4 -8 -11 -4 -16 3 -5 2 -9 -3 -8 -4 1 -15 1 -23 0 -13 -1 -13 -2 0
-11 13 -9 12 -13 -5 -28 -12 -10 -19 -26 -17 -39 2 -16 -2 -23 -13 -23 -12 0
-16 -6 -12 -20 3 -11 2 -18 -1 -16 -4 2 -13 -2 -20 -10 -7 -8 -10 -14 -6 -14
3 0 1 -7 -6 -15 -6 -8 -9 -19 -6 -24 4 -5 1 -13 -5 -17 -8 -5 -9 -3 -4 7 6 11
5 11 -5 3 -6 -7 -13 -24 -13 -38 -2 -19 -8 -26 -22 -26 -17 0 -17 -2 -5 -10
13 -9 7 -14 -12 -11 -4 0 -5 -6 -2 -14 4 -8 -1 -17 -9 -21 -9 -3 -13 -12 -10
-21 4 -11 2 -14 -5 -9 -8 5 -12 -2 -12 -19 0 -17 -4 -24 -12 -19 -7 4 -8 3 -4
-4 4 -7 14 -12 22 -12 10 0 12 -5 8 -12 -5 -9 -2 -9 9 1 9 7 17 10 17 7 0 -4
10 -1 23 5 21 12 21 11 7 -6 -14 -17 -14 -18 8 -6 12 6 22 9 22 6 0 -3 10 0
23 6 20 11 21 11 8 -4 -13 -16 -2 -25 13 -10 11 11 56 11 56 0 0 -6 7 -2 16 9
8 10 13 14 10 8 -3 -7 1 -15 10 -18 8 -3 12 -2 9 4 -3 6 1 10 10 10 10 0 14
-5 9 -12 -6 -10 -4 -10 7 0 7 6 17 12 22 12 4 0 5 -6 1 -12 -5 -9 -2 -9 9 1
14 11 17 11 17 0 0 -8 5 -6 13 6 11 14 16 15 22 5 6 -9 4 -11 -5 -5 -9 5 -11
4 -6 -4 6 -9 11 -9 22 0 8 6 14 8 14 4 0 -4 7 -2 15 5 13 11 14 10 9 -4 -5
-12 -2 -15 10 -10 9 3 13 11 9 18 -4 7 -1 7 7 -1 10 -9 17 -10 27 -1 10 8 12
7 8 -4 -7 -16 4 -17 85 -3 26 4 31 3 20 -4 -25 -18 -1 -12 26 5 23 16 24 15
17 -1 -4 -11 -2 -16 4 -12 18 11 75 18 69 8 -7 -10 20 -9 30 2 4 4 17 7 28 7
17 0 18 -2 6 -10 -9 -6 -10 -10 -3 -10 6 0 14 4 18 10 3 5 13 6 22 3 11 -4 14
-3 9 5 -5 8 -2 10 8 6 9 -3 14 -9 11 -13 -2 -4 2 -8 10 -8 8 0 12 4 9 9 -3 4
-1 8 5 8 5 0 13 -4 16 -10 8 -13 25 -13 25 1 0 5 -5 7 -12 3 -7 -5 -8 -3 -3 5
5 9 11 9 17 3 6 -6 17 -8 26 -5 11 5 13 3 7 -8 -7 -11 -6 -12 7 -2 8 7 18 10
21 6 4 -3 7 0 7 8 1 10 4 9 11 -4 8 -14 14 -16 25 -6 11 9 14 9 14 0 0 -7 5
-9 10 -6 6 4 7 11 4 17 -4 6 3 4 16 -5 22 -15 25 -15 42 0 18 16 18 16 12 0
-5 -13 -2 -16 10 -11 9 3 13 11 9 18 -4 7 -2 7 8 -1 11 -9 19 -9 26 -2 8 8 13
7 18 -2 5 -8 4 -10 -3 -5 -7 4 -12 2 -12 -3 0 -14 17 -14 25 -1 3 5 13 6 22 3
11 -4 14 -3 9 5 -5 8 -2 10 8 6 9 -3 13 -11 9 -18 -4 -6 1 -5 10 3 12 9 17 10
17 2 0 -7 5 -9 10 -6 6 4 8 11 5 16 -3 5 1 6 9 3 9 -3 13 -11 9 -17 -4 -6 -1
-7 8 -1 20 12 39 14 39 3 0 -6 5 -7 10 -4 6 4 7 11 4 17 -4 7 -2 8 4 4 22 -13
52 -15 52 -3 0 7 5 4 11 -6 8 -14 14 -16 25 -6 11 9 14 9 14 0 0 -7 5 -9 10
-6 6 4 8 11 5 16 -3 5 1 6 9 3 9 -3 13 -11 9 -18 -3 -6 4 -2 17 9 13 11 20 14
15 6 -6 -10 -2 -12 14 -6 12 4 21 2 21 -4 0 -6 5 -11 11 -11 5 0 8 4 5 9 -3 5
5 9 19 9 15 0 22 -5 18 -12 -3 -6 0 -6 8 2 15 14 53 16 44 2 -3 -6 1 -7 9 -4
9 3 13 11 10 18 -3 6 1 3 8 -6 13 -15 15 -15 24 0 9 13 12 13 19 2 6 -9 4 -11
-5 -5 -9 5 -11 4 -6 -4 5 -8 12 -9 20 -2 13 11 34 10 53 -2 6 -4 15 -2 19 4 5
8 3 9 -6 4 -9 -5 -11 -4 -6 4 6 9 11 9 23 -1 18 -15 45 -20 37 -7 -3 5 -10 6
-16 3 -6 -4 -8 -3 -5 3 7 11 43 10 54 -2 5 -4 2 -5 -6 0 -9 5 -12 4 -7 -3 4
-6 13 -9 21 -6 8 4 13 10 10 14 -3 5 9 5 27 -1 18 -5 41 -6 51 -3 10 3 25 0
34 -8 9 -7 14 -8 10 -2 -4 7 3 14 17 16 19 4 23 1 18 -11 -5 -13 -3 -14 9 -4
16 13 87 12 108 -1 10 -7 12 -6 6 4 -6 10 -4 12 7 7 9 -3 21 0 28 6 9 8 11 8
7 1 -4 -7 3 -11 18 -11 15 0 22 4 19 11 -3 6 1 3 9 -7 14 -17 15 -17 22 0 5
13 9 14 12 5 4 -10 8 -10 21 0 9 8 13 8 9 2 -4 -7 0 -15 9 -18 8 -3 12 -2 9 3
-3 5 -1 12 5 16 5 3 10 -2 10 -11 0 -16 1 -16 16 2 8 10 13 14 10 8 -3 -7 1
-14 9 -17 10 -4 12 -1 8 11 -5 14 -4 15 8 6 22 -17 51 -26 43 -13 -5 8 3 10
25 7 18 -3 31 0 32 6 0 6 4 2 9 -9 5 -11 9 -15 9 -9 1 7 12 14 26 16 13 3 22
1 19 -3 -8 -13 10 -11 25 4 9 7 11 7 8 1 -4 -7 0 -14 8 -17 10 -4 12 -1 8 11
-5 14 -3 15 8 5 7 -7 17 -13 22 -13 4 0 5 6 1 13 -4 6 3 3 15 -7 22 -20 22
-20 15 0 -6 16 -5 17 7 7 16 -16 33 -17 23 -2 -5 8 -1 8 13 0 14 -7 24 -7 33
2 9 8 11 8 7 1 -4 -7 0 -14 8 -17 10 -4 12 -1 8 11 -5 14 -3 15 8 5 7 -7 17
-13 22 -13 4 0 5 6 1 13 -4 6 3 3 15 -7 22 -20 22 -20 15 0 -6 16 -5 17 7 7 7
-7 17 -13 22 -13 4 0 5 6 0 13 -4 6 6 4 21 -7 16 -10 26 -14 22 -8 -3 5 3 12
14 15 11 3 18 2 15 -3 -3 -4 2 -10 10 -13 10 -4 12 -1 8 11 -6 15 -5 15 10 3
12 -9 17 -10 17 -2 0 8 5 9 17 2 10 -5 26 -5 41 0 13 5 21 5 18 0 -3 -5 1 -11
9 -14 10 -4 12 -1 8 11 -6 15 -5 15 10 3 12 -9 17 -10 17 -2 0 8 5 9 17 2 10
-5 26 -5 41 0 13 5 21 5 18 0 -3 -5 1 -11 9 -14 10 -4 12 -1 8 11 -5 13 -3 14
7 5 8 -8 20 -9 37 -2 14 5 22 5 19 0 -3 -5 1 -11 9 -14 10 -4 12 -1 8 11 -5
14 -3 15 8 5 16 -16 33 -17 23 -2 -5 8 -2 9 11 2 10 -6 26 -8 36 -6 11 3 26 0
34 -7 13 -11 14 -10 9 6 -6 16 -5 17 7 7 16 -16 33 -17 23 -2 -5 8 -2 9 11 2
10 -6 26 -8 36 -6 11 3 26 0 34 -7 13 -11 14 -10 8 6 -6 16 -4 17 8 7 12 -10
18 -10 29 0 8 8 11 8 7 1 -4 -7 0 -14 8 -17 10 -4 12 -1 8 11 -5 14 -3 15 8 5
7 -7 17 -13 22 -13 4 0 5 6 1 13 -4 6 3 3 15 -7 22 -20 22 -20 15 0 -6 16 -5
17 7 7 7 -7 17 -13 22 -13 4 0 5 6 1 13 -4 6 3 3 15 -7 21 -19 21 -19 15 -1
-6 14 -4 16 6 10 7 -4 28 -8 47 -7 20 1 31 -3 28 -8 -11 -17 7 -11 21 8 10 12
13 13 14 3 0 -11 3 -11 17 0 9 8 14 9 10 3 -4 -7 0 -15 9 -18 10 -4 13 -2 8 6
-5 7 1 9 19 6 15 -3 28 0 31 6 2 6 5 2 5 -9 1 -17 3 -17 11 -5 5 8 10 11 10 7
0 -4 9 -3 20 3 17 9 19 8 13 -7 -5 -15 -4 -16 8 -6 16 13 87 12 108 -1 10 -6
12 -6 7 3 -7 11 2 11 49 1 22 -5 36 1 30 13 -4 6 0 4 8 -6 12 -14 16 -15 20
-4 6 15 42 16 54 2 5 -4 2 -5 -6 0 -10 6 -12 4 -6 -4 5 -9 10 -10 18 -2 15 15
50 14 66 -1 9 -8 11 -8 8 -2 -4 7 0 15 9 18 9 4 13 2 8 -5 -4 -8 1 -9 15 -4
12 4 28 2 36 -5 7 -6 16 -7 19 -2 3 5 41 9 86 9 44 1 77 -3 74 -8 -3 -5 -1 -9
4 -9 6 0 12 6 15 13 6 15 42 16 54 2 5 -4 2 -5 -6 0 -10 6 -12 4 -7 -4 6 -9
12 -8 26 4 14 12 20 13 26 4 5 -8 3 -10 -6 -4 -9 6 -11 4 -5 -4 5 -9 10 -10
18 -2 14 14 50 15 42 1 -3 -5 -2 -10 3 -10 6 0 12 6 15 14 4 9 14 12 26 9 12
-3 18 -9 15 -14 -13 -22 6 -6 21 17 9 15 13 24 8 21 -5 -3 -15 3 -22 15 -10
16 -10 19 0 12 7 -4 4 8 -8 27 -11 19 -25 33 -31 32 -6 -2 -9 3 -6 11 3 7 -2
20 -10 29 -9 9 -16 23 -16 31 0 9 -5 16 -11 16 -5 0 -7 5 -3 12 5 7 2 9 -8 5
-12 -4 -14 -1 -10 15 3 14 1 19 -6 14 -8 -5 -10 -2 -6 8 4 9 1 16 -6 16 -7 0
-10 7 -6 16 3 8 2 13 -2 10 -14 -8 -41 31 -31 43 5 6 6 9 3 6 -8 -5 -34 20
-34 34 0 12 -21 53 -32 61 -3 3 -8 12 -10 20 -2 8 -9 21 -16 28 -7 8 -10 18
-7 23 4 5 -1 9 -10 9 -9 0 -14 3 -11 8 7 12 -22 72 -35 72 -8 0 -8 4 1 15 11
13 10 14 -5 9 -13 -5 -16 -4 -11 4 4 7 2 12 -3 12 -6 0 -10 3 -9 8 3 16 -15
41 -26 35 -6 -4 -4 2 4 12 9 11 10 16 3 11 -9 -5 -13 -1 -13 13 0 11 -9 22
-21 26 -15 5 -18 10 -10 18 8 8 5 15 -11 24 -13 7 -17 12 -10 13 6 0 12 4 12
10 0 5 -5 9 -12 7 -7 -1 -13 4 -14 11 -1 6 -2 17 -3 23 0 5 -7 7 -13 3 -7 -4
-10 -4 -6 1 4 4 2 15 -5 23 -10 13 -9 15 3 8 9 -4 8 -2 -2 7 -10 8 -15 17 -11
20 3 4 -3 7 -13 7 -11 0 -25 5 -32 12 -9 9 -12 9 -12 0 0 -7 -5 -12 -11 -12
-5 0 -7 5 -3 12 5 7 3 8 -7 2 -21 -12 -79 -15 -79 -3 0 6 -5 7 -10 4 -6 -4 -8
-10 -6 -14 3 -4 -1 -8 -9 -8 -8 0 -11 5 -8 10 4 7 -1 8 -12 3 -11 -4 -22 -2
-27 6 -5 10 -8 8 -8 -5 0 -12 -4 -16 -12 -10 -7 4 -30 7 -51 6 -25 -2 -35 1
-31 8 3 6 -4 4 -18 -5 -22 -14 -26 -14 -48 1 -13 9 -20 11 -16 4 6 -9 -6 -12
-46 -10 -30 1 -59 -1 -65 -4 -6 -4 -19 0 -27 9 -9 9 -16 11 -16 4 0 -7 -20
-10 -55 -9 -30 1 -58 -1 -62 -4 -3 -4 -17 0 -31 9 -13 9 -22 11 -18 6 9 -15
-11 -19 -66 -12 -31 4 -48 3 -48 -4 0 -7 -3 -6 -8 1 -5 8 -13 9 -22 3 -9 -5
-19 -5 -27 2 -10 8 -13 7 -13 -3 0 -10 -3 -10 -12 -1 -14 14 -32 16 -23 2 4
-7 -3 -7 -19 0 -14 5 -26 6 -26 2 0 -11 -74 -8 -82 3 -5 6 -8 6 -8 -2 0 -8 -9
-9 -30 -3 -17 5 -30 5 -30 1 0 -8 -65 -5 -80 4 -6 3 -10 -2 -10 -11 0 -16 -1
-16 -15 2 -10 14 -14 15 -15 5 0 -11 -4 -9 -15 5 -14 18 -15 18 -8 0 5 -16 3
-17 -12 -8 -15 8 -22 6 -32 -6 -10 -14 -12 -14 -8 -2 4 11 -1 16 -15 16 -11 0
-20 -4 -20 -9 0 -4 -4 -6 -9 -2 -17 10 -71 12 -71 3 0 -6 -11 -3 -25 6 -16 10
-23 12 -20 4 7 -17 -103 -11 -124 5 -12 10 -13 9 -6 -2 6 -11 2 -13 -19 -7
-20 5 -26 4 -20 -5 5 -8 3 -9 -7 -4 -17 11 -115 13 -151 4 -17 -5 -30 -3 -34
3 -5 7 -2 8 6 3 9 -5 11 -4 6 4 -6 9 -11 9 -21 1 -7 -6 -21 -7 -30 -3 -14 5
-16 3 -10 -8 8 -12 6 -12 -8 0 -9 7 -17 10 -17 6 0 -4 -7 -2 -15 5 -13 11 -14
10 -8 -6 5 -15 4 -17 -8 -9 -8 6 -27 10 -44 9 -16 -1 -35 3 -42 8 -7 6 -14 5
-18 -2 -4 -6 -13 -9 -21 -6 -8 3 -14 0 -15 -7 0 -7 -4 -3 -9 8 -5 11 -9 14 -9
6 -1 -7 -7 -11 -16 -7 -8 3 -15 0 -15 -6 0 -7 -4 -7 -12 -1 -7 5 -44 8 -83 7
-38 -1 -76 2 -82 8 -9 7 -15 6 -19 -6 -3 -9 -11 -13 -17 -9 -18 11 -97 11 -91
-1 3 -6 -2 -2 -10 8 -14 18 -21 15 -17 -7 1 -5 -4 -5 -10 -1 -19 11 -139 12
-132 0 4 -6 0 -5 -9 2 -12 9 -18 10 -23 2 -5 -7 -11 -8 -19 -1 -7 6 -24 8 -39
5 -18 -3 -27 0 -27 8 0 9 -3 9 -8 3 -10 -16 -54 -17 -46 -2 3 7 -1 4 -9 -5
-13 -16 -15 -16 -32 0 -10 9 -14 11 -10 4 6 -11 -3 -13 -44 -9 -37 4 -49 2
-45 -6 3 -7 -2 -3 -10 7 -14 17 -20 16 -18 -5 1 -3 -5 -6 -13 -6 -8 0 -12 3
-10 6 2 4 -16 6 -40 7 -24 0 -42 -3 -40 -6 2 -4 -16 -4 -40 0 -25 4 -45 3 -45
-2 0 -5 -6 -6 -12 -2 -17 11 -48 12 -48 3 0 -5 -11 -4 -24 1 -19 7 -26 5 -30
-7 -5 -12 -9 -13 -21 -3 -9 8 -27 10 -46 6 -16 -3 -28 -2 -25 3 3 4 -6 6 -19
3 -15 -2 -22 -9 -18 -16 3 -6 -3 -3 -14 7 -18 15 -22 16 -32 3 -13 -16 -45
-10 -35 6 4 6 -2 5 -14 -1 -17 -9 -21 -8 -25 7 -4 16 -5 16 -6 -1 -1 -15 -4
-16 -22 -6 -12 6 -19 7 -16 2 3 -5 -12 -9 -34 -8 -21 0 -39 2 -39 5 0 3 -20 5
-45 5 -25 0 -45 -4 -45 -9 0 -4 -6 -3 -13 3 -8 6 -16 8 -20 5 -3 -3 -16 0 -29
7 -22 12 -22 11 -8 -6z m-25 -924 c-9 -8 -36 -10 -30 -2 2 4 11 8 20 8 8 0 13
-3 10 -6z"/>
<path d="M6115 3760 c-3 -5 -1 -10 4 -10 6 0 11 5 11 10 0 6 -2 10 -4 10 -3 0
-8 -4 -11 -10z"/>
</g>
</svg>
